<svg width="525" height="82" viewBox="0 0 525 82" fill="none" xmlns="http://www.w3.org/2000/svg">
<path d="M153.25 28.8047C153.51 28.8438 153.771 28.8763 154.031 28.9023C154.305 28.9154 154.565 28.9219 154.812 28.9219C156.44 28.9219 157.671 28.4857 158.504 27.6133C159.35 26.7409 159.773 25.4323 159.773 23.6875C159.773 22.2552 159.435 21.1224 158.758 20.2891C158.094 19.4557 157.111 19.0391 155.809 19.0391C155.392 19.0391 155.021 19.0586 154.695 19.0977C154.383 19.1237 154.116 19.1562 153.895 19.1953C153.647 19.2474 153.432 19.2995 153.25 19.3516V28.8047ZM156.238 30.0742C155.978 30.1133 155.717 30.1393 155.457 30.1523C155.21 30.1523 154.956 30.1523 154.695 30.1523C154.487 30.1523 154.259 30.1458 154.012 30.1328C153.764 30.1198 153.51 30.1003 153.25 30.0742V31.0312C153.25 32.1901 153.263 33.2057 153.289 34.0781C153.315 34.9375 153.348 35.6797 153.387 36.3047C153.439 36.9297 153.497 37.457 153.562 37.8867C153.628 38.3034 153.706 38.6484 153.797 38.9219V39H149.285V38.9219C149.376 38.6484 149.454 38.2969 149.52 37.8672C149.598 37.4375 149.656 36.9102 149.695 36.2852C149.747 35.6471 149.786 34.8919 149.812 34.0195C149.839 33.1471 149.852 32.125 149.852 30.9531V26.0312C149.852 24.8594 149.839 23.8438 149.812 22.9844C149.786 22.112 149.747 21.3633 149.695 20.7383C149.656 20.1003 149.598 19.5664 149.52 19.1367C149.454 18.707 149.376 18.3555 149.285 18.082V18.0039C149.493 18.0169 149.715 18.0299 149.949 18.043C150.145 18.056 150.359 18.069 150.594 18.082C150.841 18.082 151.089 18.082 151.336 18.082C151.753 18.082 152.371 18.043 153.191 17.9648C154.012 17.8867 154.975 17.8477 156.082 17.8477C157.202 17.8477 158.217 17.9844 159.129 18.2578C160.053 18.5312 160.841 18.9219 161.492 19.4297C162.156 19.9375 162.664 20.556 163.016 21.2852C163.38 22.0143 163.562 22.8281 163.562 23.7266C163.562 24.4297 163.465 25.0742 163.27 25.6602C163.074 26.2331 162.801 26.7539 162.449 27.2227C162.098 27.6784 161.681 28.082 161.199 28.4336C160.717 28.7852 160.184 29.0911 159.598 29.3516L163.68 35.1133C164.031 35.582 164.383 36.0312 164.734 36.4609C165.099 36.8906 165.444 37.2747 165.77 37.6133C166.095 37.9518 166.401 38.2383 166.688 38.4727C166.974 38.694 167.215 38.8438 167.41 38.9219V39H162.293C162.293 38.8828 162.208 38.681 162.039 38.3945C161.883 38.0951 161.694 37.7891 161.473 37.4766C161.264 37.151 161.049 36.8385 160.828 36.5391C160.62 36.2396 160.464 36.0182 160.359 35.875L156.238 30.0742ZM167.938 28.4336C167.938 26.8971 168.224 25.4714 168.797 24.1562C169.383 22.8411 170.177 21.7018 171.18 20.7383C172.182 19.7617 173.367 19 174.734 18.4531C176.102 17.9062 177.566 17.6328 179.129 17.6328C180.665 17.6328 182.111 17.8932 183.465 18.4141C184.832 18.9219 186.017 19.651 187.02 20.6016C188.035 21.5521 188.836 22.7044 189.422 24.0586C190.008 25.4128 190.301 26.9297 190.301 28.6094C190.301 30.0026 190.053 31.3503 189.559 32.6523C189.064 33.9414 188.341 35.0872 187.391 36.0898C186.44 37.0794 185.268 37.8737 183.875 38.4727C182.482 39.0586 180.887 39.3516 179.09 39.3516C177.566 39.3516 176.128 39.0977 174.773 38.5898C173.419 38.082 172.234 37.3594 171.219 36.4219C170.203 35.4714 169.402 34.3255 168.816 32.9844C168.23 31.6302 167.938 30.1133 167.938 28.4336ZM179.578 37.9648C180.568 37.9648 181.479 37.7695 182.312 37.3789C183.146 36.9883 183.862 36.4284 184.461 35.6992C185.073 34.9701 185.542 34.0846 185.867 33.043C186.206 31.9883 186.375 30.8034 186.375 29.4883C186.375 27.9909 186.212 26.6042 185.887 25.3281C185.574 24.0521 185.092 22.9518 184.441 22.0273C183.803 21.0898 183.003 20.3607 182.039 19.8398C181.076 19.306 179.949 19.0391 178.66 19.0391C177.671 19.0391 176.759 19.2279 175.926 19.6055C175.092 19.9831 174.37 20.5299 173.758 21.2461C173.159 21.9622 172.69 22.8411 172.352 23.8828C172.013 24.9245 171.844 26.1094 171.844 27.4375C171.844 28.9219 172.007 30.3086 172.332 31.5977C172.671 32.8737 173.159 33.987 173.797 34.9375C174.448 35.875 175.255 36.6172 176.219 37.1641C177.182 37.6979 178.302 37.9648 179.578 37.9648ZM192.918 38.9219C193.087 38.7396 193.257 38.4076 193.426 37.9258C193.608 37.444 193.751 36.9232 193.855 36.3633C194.012 35.4518 194.181 34.4167 194.363 33.2578C194.559 32.0859 194.747 30.8815 194.93 29.6445C195.125 28.4076 195.314 27.1771 195.496 25.9531C195.678 24.7161 195.848 23.5703 196.004 22.5156C196.16 21.4609 196.29 20.5365 196.395 19.7422C196.499 18.9479 196.57 18.3685 196.609 18.0039H198.934L208.25 34.6836L217.801 18.0039H219.695L222.039 34.3125C222.156 35.0547 222.267 35.6862 222.371 36.207C222.488 36.7279 222.599 37.1706 222.703 37.5352C222.807 37.8867 222.911 38.1732 223.016 38.3945C223.12 38.6159 223.211 38.7917 223.289 38.9219V39H218.484V38.9219C218.523 38.8177 218.569 38.6419 218.621 38.3945C218.686 38.1471 218.719 37.8542 218.719 37.5156C218.719 37.2943 218.699 36.9753 218.66 36.5586C218.634 36.1419 218.589 35.7318 218.523 35.3281L216.844 23.3555L207.957 38.9609L206.57 38.7656L197.84 23.2383C197.514 25.4258 197.228 27.4505 196.98 29.3125C196.876 30.1068 196.772 30.901 196.668 31.6953C196.564 32.4896 196.473 33.2383 196.395 33.9414C196.316 34.6315 196.251 35.2435 196.199 35.7773C196.147 36.3112 196.121 36.7083 196.121 36.9688C196.121 37.2943 196.128 37.5807 196.141 37.8281C196.154 38.0625 196.173 38.2708 196.199 38.4531C196.225 38.6615 196.251 38.8438 196.277 39H192.918V38.9219ZM227.449 18.0039C228.725 18.0039 230.034 18.0039 231.375 18.0039C232.716 17.9909 233.96 17.9779 235.105 17.9648C236.251 17.9388 237.234 17.9128 238.055 17.8867C238.888 17.8607 239.435 17.8216 239.695 17.7695L238.934 19.8789C238.582 19.7878 238.185 19.7031 237.742 19.625C237.352 19.5599 236.876 19.5013 236.316 19.4492C235.77 19.3841 235.132 19.3516 234.402 19.3516C234.142 19.3516 233.842 19.3646 233.504 19.3906C233.165 19.4036 232.84 19.4232 232.527 19.4492C232.163 19.4753 231.792 19.5013 231.414 19.5273V27.2422C232.469 27.2292 233.419 27.2031 234.266 27.1641C235.112 27.125 235.835 27.0729 236.434 27.0078C237.137 26.9557 237.755 26.8841 238.289 26.793L237.82 29.1172C237.104 29.026 236.382 28.9479 235.652 28.8828C235.027 28.8177 234.337 28.7656 233.582 28.7266C232.827 28.6745 232.104 28.6484 231.414 28.6484V37.5156C232.625 37.5156 233.738 37.4701 234.754 37.3789C235.77 37.2747 236.655 37.1641 237.41 37.0469C238.296 36.9036 239.096 36.7409 239.812 36.5586L239.363 39.1172C239.168 39.1042 238.849 39.0846 238.406 39.0586C237.977 39.0456 237.521 39.0326 237.039 39.0195C236.57 39.0195 236.128 39.013 235.711 39C235.294 39 235.008 39 234.852 39H227.449V38.9219C227.54 38.6484 227.618 38.2969 227.684 37.8672C227.762 37.4375 227.82 36.9102 227.859 36.2852C227.911 35.6471 227.951 34.8919 227.977 34.0195C228.003 33.1471 228.016 32.125 228.016 30.9531V26.0312C228.016 24.8594 228.003 23.8438 227.977 22.9844C227.951 22.112 227.911 21.3633 227.859 20.7383C227.82 20.1003 227.762 19.5664 227.684 19.1367C227.618 18.707 227.54 18.3555 227.449 18.082V18.0039ZM248.133 28.8047C248.393 28.8438 248.654 28.8763 248.914 28.9023C249.188 28.9154 249.448 28.9219 249.695 28.9219C251.323 28.9219 252.553 28.4857 253.387 27.6133C254.233 26.7409 254.656 25.4323 254.656 23.6875C254.656 22.2552 254.318 21.1224 253.641 20.2891C252.977 19.4557 251.993 19.0391 250.691 19.0391C250.275 19.0391 249.904 19.0586 249.578 19.0977C249.266 19.1237 248.999 19.1562 248.777 19.1953C248.53 19.2474 248.315 19.2995 248.133 19.3516V28.8047ZM251.121 30.0742C250.861 30.1133 250.6 30.1393 250.34 30.1523C250.092 30.1523 249.839 30.1523 249.578 30.1523C249.37 30.1523 249.142 30.1458 248.895 30.1328C248.647 30.1198 248.393 30.1003 248.133 30.0742V31.0312C248.133 32.1901 248.146 33.2057 248.172 34.0781C248.198 34.9375 248.23 35.6797 248.27 36.3047C248.322 36.9297 248.38 37.457 248.445 37.8867C248.51 38.3034 248.589 38.6484 248.68 38.9219V39H244.168V38.9219C244.259 38.6484 244.337 38.2969 244.402 37.8672C244.48 37.4375 244.539 36.9102 244.578 36.2852C244.63 35.6471 244.669 34.8919 244.695 34.0195C244.721 33.1471 244.734 32.125 244.734 30.9531V26.0312C244.734 24.8594 244.721 23.8438 244.695 22.9844C244.669 22.112 244.63 21.3633 244.578 20.7383C244.539 20.1003 244.48 19.5664 244.402 19.1367C244.337 18.707 244.259 18.3555 244.168 18.082V18.0039C244.376 18.0169 244.598 18.0299 244.832 18.043C245.027 18.056 245.242 18.069 245.477 18.082C245.724 18.082 245.971 18.082 246.219 18.082C246.635 18.082 247.254 18.043 248.074 17.9648C248.895 17.8867 249.858 17.8477 250.965 17.8477C252.085 17.8477 253.1 17.9844 254.012 18.2578C254.936 18.5312 255.724 18.9219 256.375 19.4297C257.039 19.9375 257.547 20.556 257.898 21.2852C258.263 22.0143 258.445 22.8281 258.445 23.7266C258.445 24.4297 258.348 25.0742 258.152 25.6602C257.957 26.2331 257.684 26.7539 257.332 27.2227C256.98 27.6784 256.564 28.082 256.082 28.4336C255.6 28.7852 255.066 29.0911 254.48 29.3516L258.562 35.1133C258.914 35.582 259.266 36.0312 259.617 36.4609C259.982 36.8906 260.327 37.2747 260.652 37.6133C260.978 37.9518 261.284 38.2383 261.57 38.4727C261.857 38.694 262.098 38.8438 262.293 38.9219V39H257.176C257.176 38.8828 257.091 38.681 256.922 38.3945C256.766 38.0951 256.577 37.7891 256.355 37.4766C256.147 37.151 255.932 36.8385 255.711 36.5391C255.503 36.2396 255.346 36.0182 255.242 35.875L251.121 30.0742ZM262.82 28.4336C262.82 26.8971 263.107 25.4714 263.68 24.1562C264.266 22.8411 265.06 21.7018 266.062 20.7383C267.065 19.7617 268.25 19 269.617 18.4531C270.984 17.9062 272.449 17.6328 274.012 17.6328C275.548 17.6328 276.993 17.8932 278.348 18.4141C279.715 18.9219 280.9 19.651 281.902 20.6016C282.918 21.5521 283.719 22.7044 284.305 24.0586C284.891 25.4128 285.184 26.9297 285.184 28.6094C285.184 30.0026 284.936 31.3503 284.441 32.6523C283.947 33.9414 283.224 35.0872 282.273 36.0898C281.323 37.0794 280.151 37.8737 278.758 38.4727C277.365 39.0586 275.77 39.3516 273.973 39.3516C272.449 39.3516 271.01 39.0977 269.656 38.5898C268.302 38.082 267.117 37.3594 266.102 36.4219C265.086 35.4714 264.285 34.3255 263.699 32.9844C263.113 31.6302 262.82 30.1133 262.82 28.4336ZM274.461 37.9648C275.451 37.9648 276.362 37.7695 277.195 37.3789C278.029 36.9883 278.745 36.4284 279.344 35.6992C279.956 34.9701 280.424 34.0846 280.75 33.043C281.089 31.9883 281.258 30.8034 281.258 29.4883C281.258 27.9909 281.095 26.6042 280.77 25.3281C280.457 24.0521 279.975 22.9518 279.324 22.0273C278.686 21.0898 277.885 20.3607 276.922 19.8398C275.958 19.306 274.832 19.0391 273.543 19.0391C272.553 19.0391 271.642 19.2279 270.809 19.6055C269.975 19.9831 269.253 20.5299 268.641 21.2461C268.042 21.9622 267.573 22.8411 267.234 23.8828C266.896 24.9245 266.727 26.1094 266.727 27.4375C266.727 28.9219 266.889 30.3086 267.215 31.5977C267.553 32.8737 268.042 33.987 268.68 34.9375C269.331 35.875 270.138 36.6172 271.102 37.1641C272.065 37.6979 273.185 37.9648 274.461 37.9648ZM310.359 30.9531C310.359 32.125 310.372 33.1471 310.398 34.0195C310.424 34.8919 310.457 35.6471 310.496 36.2852C310.548 36.9102 310.607 37.4375 310.672 37.8672C310.75 38.2969 310.835 38.6484 310.926 38.9219V39H306.395V38.9219C306.486 38.6484 306.564 38.2969 306.629 37.8672C306.707 37.4375 306.766 36.9102 306.805 36.2852C306.857 35.6471 306.896 34.8919 306.922 34.0195C306.948 33.1471 306.961 32.125 306.961 30.9531V29.6055L299.93 20.3281C299.461 19.7031 299.012 19.2018 298.582 18.8242C298.152 18.4336 297.827 18.1862 297.605 18.082V18.0039H303.152C303.152 18.2383 303.237 18.6029 303.406 19.0977C303.576 19.5794 303.921 20.1719 304.441 20.875L309.402 27.4375L314.48 20.6016C314.845 20.1068 315.118 19.6185 315.301 19.1367C315.496 18.6549 315.594 18.2773 315.594 18.0039H319.168V18.082C318.842 18.3034 318.504 18.5833 318.152 18.9219C317.814 19.2604 317.417 19.7422 316.961 20.3672L310.359 29.3125V30.9531ZM345.672 32.3984C345.32 32.3984 344.878 32.3984 344.344 32.3984C343.823 32.3984 343.25 32.3984 342.625 32.3984C342 32.3984 341.355 32.3984 340.691 32.3984C340.027 32.3984 339.396 32.4049 338.797 32.418C338.198 32.418 337.651 32.4245 337.156 32.4375C336.661 32.4375 336.277 32.4375 336.004 32.4375L335.281 33.9609C334.969 34.5859 334.702 35.1328 334.48 35.6016C334.259 36.0573 334.077 36.4609 333.934 36.8125C333.79 37.1641 333.686 37.4701 333.621 37.7305C333.556 37.9779 333.523 38.2122 333.523 38.4336C333.523 38.5768 333.53 38.6875 333.543 38.7656C333.556 38.8307 333.576 38.8828 333.602 38.9219V39H330.164V38.9219C330.255 38.8307 330.398 38.6354 330.594 38.3359C330.789 38.0234 331.01 37.6458 331.258 37.2031C331.518 36.7604 331.792 36.2591 332.078 35.6992C332.378 35.1393 332.671 34.5599 332.957 33.9609L340.926 17.5156H342.391L350.203 33.9609C350.503 34.5859 350.802 35.1849 351.102 35.7578C351.414 36.3307 351.701 36.8451 351.961 37.3008C352.221 37.7435 352.449 38.1146 352.645 38.4141C352.84 38.7005 352.97 38.8698 353.035 38.9219V39H348.035C348.061 38.8958 348.074 38.8047 348.074 38.7266C348.074 38.6354 348.074 38.5378 348.074 38.4336C348.074 38.1471 348.009 37.8021 347.879 37.3984C347.762 36.9948 347.612 36.5846 347.43 36.168C347.26 35.7383 347.078 35.3281 346.883 34.9375C346.701 34.5469 346.551 34.2214 346.434 33.9609L345.672 32.3984ZM336.766 30.875H337.957C338.504 30.875 339.083 30.875 339.695 30.875C340.32 30.862 340.945 30.8555 341.57 30.8555C342.195 30.8555 342.801 30.8555 343.387 30.8555C343.973 30.8424 344.5 30.8359 344.969 30.8359L340.926 22.2031L336.766 30.875ZM364.93 22.0859H364.539C364.461 21.8646 364.331 21.5846 364.148 21.2461C363.979 20.9076 363.745 20.5755 363.445 20.25C363.159 19.9245 362.801 19.651 362.371 19.4297C361.941 19.1953 361.427 19.0781 360.828 19.0781C360.372 19.0781 359.962 19.1562 359.598 19.3125C359.246 19.4557 358.947 19.6576 358.699 19.918C358.452 20.1784 358.263 20.4909 358.133 20.8555C358.003 21.207 357.938 21.5911 357.938 22.0078C357.938 22.6849 358.139 23.3294 358.543 23.9414C358.96 24.5534 359.474 25.1654 360.086 25.7773C360.698 26.3763 361.362 26.9818 362.078 27.5938C362.794 28.2057 363.458 28.8438 364.07 29.5078C364.682 30.1719 365.19 30.875 365.594 31.6172C366.01 32.3594 366.219 33.1536 366.219 34C366.219 34.625 366.102 35.2695 365.867 35.9336C365.646 36.5977 365.281 37.1966 364.773 37.7305C364.266 38.2643 363.615 38.7005 362.82 39.0391C362.026 39.3906 361.062 39.5664 359.93 39.5664C359.305 39.5664 358.706 39.5143 358.133 39.4102C357.573 39.306 357.052 39.1758 356.57 39.0195C356.102 38.8763 355.678 38.7201 355.301 38.5508C354.936 38.3685 354.63 38.1992 354.383 38.043L354.734 34.3516H355.145C355.275 34.8073 355.464 35.263 355.711 35.7188C355.971 36.1745 356.284 36.5911 356.648 36.9688C357.026 37.3333 357.462 37.6328 357.957 37.8672C358.465 38.0885 359.044 38.1992 359.695 38.1992C360.151 38.1992 360.581 38.1276 360.984 37.9844C361.388 37.8281 361.733 37.6133 362.02 37.3398C362.319 37.0664 362.553 36.7344 362.723 36.3438C362.892 35.9401 362.977 35.4909 362.977 34.9961C362.977 34.4102 362.859 33.8698 362.625 33.375C362.391 32.8672 362.078 32.3854 361.688 31.9297C361.297 31.4609 360.854 31.0117 360.359 30.582C359.878 30.1523 359.376 29.7161 358.855 29.2734C358.335 28.8307 357.827 28.3815 357.332 27.9258C356.85 27.457 356.414 26.9557 356.023 26.4219C355.633 25.888 355.32 25.3216 355.086 24.7227C354.852 24.1107 354.734 23.4401 354.734 22.7109C354.734 21.9427 354.897 21.2526 355.223 20.6406C355.548 20.0286 355.978 19.5143 356.512 19.0977C357.046 18.668 357.658 18.3424 358.348 18.1211C359.038 17.8867 359.754 17.7695 360.496 17.7695C361.043 17.7695 361.551 17.8086 362.02 17.8867C362.501 17.9648 362.931 18.0625 363.309 18.1797C363.699 18.2839 364.038 18.3945 364.324 18.5117C364.611 18.6159 364.845 18.7005 365.027 18.7656L364.93 22.0859ZM369.188 28.4336C369.188 26.8971 369.474 25.4714 370.047 24.1562C370.633 22.8411 371.427 21.7018 372.43 20.7383C373.432 19.7617 374.617 19 375.984 18.4531C377.352 17.9062 378.816 17.6328 380.379 17.6328C381.915 17.6328 383.361 17.8932 384.715 18.4141C386.082 18.9219 387.267 19.651 388.27 20.6016C389.285 21.5521 390.086 22.7044 390.672 24.0586C391.258 25.4128 391.551 26.9297 391.551 28.6094C391.551 30.0026 391.303 31.3503 390.809 32.6523C390.314 33.9414 389.591 35.0872 388.641 36.0898C387.69 37.0794 386.518 37.8737 385.125 38.4727C383.732 39.0586 382.137 39.3516 380.34 39.3516C378.816 39.3516 377.378 39.0977 376.023 38.5898C374.669 38.082 373.484 37.3594 372.469 36.4219C371.453 35.4714 370.652 34.3255 370.066 32.9844C369.48 31.6302 369.188 30.1133 369.188 28.4336ZM380.828 37.9648C381.818 37.9648 382.729 37.7695 383.562 37.3789C384.396 36.9883 385.112 36.4284 385.711 35.6992C386.323 34.9701 386.792 34.0846 387.117 33.043C387.456 31.9883 387.625 30.8034 387.625 29.4883C387.625 27.9909 387.462 26.6042 387.137 25.3281C386.824 24.0521 386.342 22.9518 385.691 22.0273C385.053 21.0898 384.253 20.3607 383.289 19.8398C382.326 19.306 381.199 19.0391 379.91 19.0391C378.921 19.0391 378.009 19.2279 377.176 19.6055C376.342 19.9831 375.62 20.5299 375.008 21.2461C374.409 21.9622 373.94 22.8411 373.602 23.8828C373.263 24.9245 373.094 26.1094 373.094 27.4375C373.094 28.9219 373.257 30.3086 373.582 31.5977C373.921 32.8737 374.409 33.987 375.047 34.9375C375.698 35.875 376.505 36.6172 377.469 37.1641C378.432 37.6979 379.552 37.9648 380.828 37.9648ZM413.172 34.6445L411.648 38.2773C411.271 38.4466 410.841 38.6029 410.359 38.7461C409.891 38.8763 409.402 38.987 408.895 39.0781C408.387 39.1693 407.866 39.2344 407.332 39.2734C406.811 39.3255 406.316 39.3516 405.848 39.3516C404.207 39.3516 402.684 39.1107 401.277 38.6289C399.884 38.1471 398.68 37.444 397.664 36.5195C396.648 35.582 395.854 34.4362 395.281 33.082C394.708 31.7279 394.422 30.1784 394.422 28.4336C394.422 26.8971 394.721 25.4714 395.32 24.1562C395.919 22.8411 396.746 21.7018 397.801 20.7383C398.855 19.7617 400.099 19 401.531 18.4531C402.977 17.9062 404.539 17.6328 406.219 17.6328C406.596 17.6328 406.993 17.6523 407.41 17.6914C407.84 17.7174 408.263 17.763 408.68 17.8281C409.096 17.8932 409.5 17.9714 409.891 18.0625C410.281 18.1406 410.646 18.2253 410.984 18.3164L412.449 21.832L412.215 21.9688C411.863 21.5391 411.44 21.1419 410.945 20.7773C410.464 20.4128 409.93 20.1068 409.344 19.8594C408.771 19.599 408.165 19.3971 407.527 19.2539C406.889 19.1107 406.238 19.0391 405.574 19.0391C404.493 19.0391 403.504 19.2279 402.605 19.6055C401.72 19.9831 400.958 20.5365 400.32 21.2656C399.695 21.9818 399.207 22.8607 398.855 23.9023C398.504 24.944 398.328 26.1224 398.328 27.4375C398.328 28.9219 398.497 30.3086 398.836 31.5977C399.174 32.8737 399.682 33.987 400.359 34.9375C401.036 35.875 401.883 36.6172 402.898 37.1641C403.914 37.6979 405.099 37.9648 406.453 37.9648C407.104 37.9648 407.742 37.8867 408.367 37.7305C409.005 37.5612 409.604 37.3268 410.164 37.0273C410.737 36.7279 411.258 36.3698 411.727 35.9531C412.195 35.5234 412.599 35.0482 412.938 34.5273L413.172 34.6445ZM417.078 26.0312C417.078 24.8594 417.065 23.8438 417.039 22.9844C417.013 22.112 416.974 21.3633 416.922 20.7383C416.883 20.1003 416.824 19.5664 416.746 19.1367C416.681 18.707 416.603 18.3555 416.512 18.082V18.0039H421.043V18.082C420.952 18.3555 420.867 18.707 420.789 19.1367C420.724 19.5664 420.665 20.1003 420.613 20.7383C420.574 21.3633 420.542 22.112 420.516 22.9844C420.49 23.8438 420.477 24.8594 420.477 26.0312V30.9531C420.477 32.125 420.49 33.1471 420.516 34.0195C420.542 34.8919 420.574 35.6471 420.613 36.2852C420.665 36.9102 420.724 37.4375 420.789 37.8672C420.867 38.2969 420.952 38.6484 421.043 38.9219V39H416.512V38.9219C416.603 38.6484 416.681 38.2969 416.746 37.8672C416.824 37.4375 416.883 36.9102 416.922 36.2852C416.974 35.6471 417.013 34.8919 417.039 34.0195C417.065 33.1471 417.078 32.125 417.078 30.9531V26.0312ZM439.227 32.3984C438.875 32.3984 438.432 32.3984 437.898 32.3984C437.378 32.3984 436.805 32.3984 436.18 32.3984C435.555 32.3984 434.91 32.3984 434.246 32.3984C433.582 32.3984 432.951 32.4049 432.352 32.418C431.753 32.418 431.206 32.4245 430.711 32.4375C430.216 32.4375 429.832 32.4375 429.559 32.4375L428.836 33.9609C428.523 34.5859 428.257 35.1328 428.035 35.6016C427.814 36.0573 427.632 36.4609 427.488 36.8125C427.345 37.1641 427.241 37.4701 427.176 37.7305C427.111 37.9779 427.078 38.2122 427.078 38.4336C427.078 38.5768 427.085 38.6875 427.098 38.7656C427.111 38.8307 427.13 38.8828 427.156 38.9219V39H423.719V38.9219C423.81 38.8307 423.953 38.6354 424.148 38.3359C424.344 38.0234 424.565 37.6458 424.812 37.2031C425.073 36.7604 425.346 36.2591 425.633 35.6992C425.932 35.1393 426.225 34.5599 426.512 33.9609L434.48 17.5156H435.945L443.758 33.9609C444.057 34.5859 444.357 35.1849 444.656 35.7578C444.969 36.3307 445.255 36.8451 445.516 37.3008C445.776 37.7435 446.004 38.1146 446.199 38.4141C446.395 38.7005 446.525 38.8698 446.59 38.9219V39H441.59C441.616 38.8958 441.629 38.8047 441.629 38.7266C441.629 38.6354 441.629 38.5378 441.629 38.4336C441.629 38.1471 441.564 37.8021 441.434 37.3984C441.316 36.9948 441.167 36.5846 440.984 36.168C440.815 35.7383 440.633 35.3281 440.438 34.9375C440.255 34.5469 440.105 34.2214 439.988 33.9609L439.227 32.3984ZM430.32 30.875H431.512C432.059 30.875 432.638 30.875 433.25 30.875C433.875 30.862 434.5 30.8555 435.125 30.8555C435.75 30.8555 436.355 30.8555 436.941 30.8555C437.527 30.8424 438.055 30.8359 438.523 30.8359L434.48 22.2031L430.32 30.875ZM453.016 19.3906C453.003 20.4583 452.99 21.4935 452.977 22.4961C452.977 22.9258 452.97 23.3685 452.957 23.8242C452.957 24.2669 452.951 24.7096 452.938 25.1523C452.938 25.5951 452.938 26.0182 452.938 26.4219C452.938 26.8125 452.938 27.1641 452.938 27.4766C452.938 28.1276 452.938 28.9154 452.938 29.8398C452.951 30.7513 452.964 31.6888 452.977 32.6523C452.99 33.6159 453.009 34.5469 453.035 35.4453C453.061 36.3307 453.094 37.0729 453.133 37.6719C453.263 37.6979 453.432 37.724 453.641 37.75C453.849 37.763 454.064 37.7826 454.285 37.8086C454.52 37.8216 454.747 37.8346 454.969 37.8477C455.19 37.8477 455.379 37.8477 455.535 37.8477C456.251 37.8477 456.974 37.8021 457.703 37.7109C458.445 37.6198 459.155 37.4505 459.832 37.2031C460.522 36.9427 461.167 36.5911 461.766 36.1484C462.365 35.7057 462.885 35.1393 463.328 34.4492C463.784 33.7461 464.135 32.9062 464.383 31.9297C464.643 30.9401 464.773 29.7747 464.773 28.4336C464.773 25.4779 464.064 23.1992 462.645 21.5977C461.238 19.9961 459.135 19.1953 456.336 19.1953C456.062 19.1953 455.77 19.2018 455.457 19.2148C455.158 19.2279 454.858 19.2474 454.559 19.2734C454.259 19.2865 453.973 19.306 453.699 19.332C453.439 19.3581 453.211 19.3776 453.016 19.3906ZM448.973 17.9648C449.285 17.9779 449.578 17.9844 449.852 17.9844C450.086 17.9974 450.314 18.0039 450.535 18.0039C450.757 18.0039 450.919 18.0039 451.023 18.0039C451.206 18.0039 451.531 17.9974 452 17.9844C452.469 17.9714 452.996 17.9583 453.582 17.9453C454.181 17.9193 454.806 17.8997 455.457 17.8867C456.121 17.8607 456.733 17.8477 457.293 17.8477C458.816 17.8477 460.268 18.0234 461.648 18.375C463.029 18.7266 464.24 19.306 465.281 20.1133C466.336 20.9076 467.169 21.9557 467.781 23.2578C468.393 24.5469 468.699 26.1419 468.699 28.043C468.699 30.0872 468.348 31.819 467.645 33.2383C466.941 34.6576 465.991 35.8164 464.793 36.7148C463.595 37.6003 462.202 38.2448 460.613 38.6484C459.038 39.0391 457.371 39.2344 455.613 39.2344C455.197 39.2344 454.676 39.2214 454.051 39.1953C453.426 39.1693 452.788 39.1432 452.137 39.1172C451.486 39.0911 450.867 39.0651 450.281 39.0391C449.708 39.013 449.272 39 448.973 39V38.9219C449.064 38.6484 449.142 38.2969 449.207 37.8672C449.285 37.4375 449.344 36.9102 449.383 36.2852C449.435 35.6471 449.474 34.8919 449.5 34.0195C449.526 33.1471 449.539 32.125 449.539 30.9531V26.0312C449.539 24.8594 449.526 23.8372 449.5 22.9648C449.474 22.0924 449.435 21.3372 449.383 20.6992C449.344 20.0612 449.285 19.5273 449.207 19.0977C449.142 18.668 449.064 18.3164 448.973 18.043V17.9648ZM471.727 28.4336C471.727 26.8971 472.013 25.4714 472.586 24.1562C473.172 22.8411 473.966 21.7018 474.969 20.7383C475.971 19.7617 477.156 19 478.523 18.4531C479.891 17.9062 481.355 17.6328 482.918 17.6328C484.454 17.6328 485.9 17.8932 487.254 18.4141C488.621 18.9219 489.806 19.651 490.809 20.6016C491.824 21.5521 492.625 22.7044 493.211 24.0586C493.797 25.4128 494.09 26.9297 494.09 28.6094C494.09 30.0026 493.842 31.3503 493.348 32.6523C492.853 33.9414 492.13 35.0872 491.18 36.0898C490.229 37.0794 489.057 37.8737 487.664 38.4727C486.271 39.0586 484.676 39.3516 482.879 39.3516C481.355 39.3516 479.917 39.0977 478.562 38.5898C477.208 38.082 476.023 37.3594 475.008 36.4219C473.992 35.4714 473.191 34.3255 472.605 32.9844C472.02 31.6302 471.727 30.1133 471.727 28.4336ZM483.367 37.9648C484.357 37.9648 485.268 37.7695 486.102 37.3789C486.935 36.9883 487.651 36.4284 488.25 35.6992C488.862 34.9701 489.331 34.0846 489.656 33.043C489.995 31.9883 490.164 30.8034 490.164 29.4883C490.164 27.9909 490.001 26.6042 489.676 25.3281C489.363 24.0521 488.882 22.9518 488.23 22.0273C487.592 21.0898 486.792 20.3607 485.828 19.8398C484.865 19.306 483.738 19.0391 482.449 19.0391C481.46 19.0391 480.548 19.2279 479.715 19.6055C478.882 19.9831 478.159 20.5299 477.547 21.2461C476.948 21.9622 476.479 22.8411 476.141 23.8828C475.802 24.9245 475.633 26.1094 475.633 27.4375C475.633 28.9219 475.796 30.3086 476.121 31.5977C476.46 32.8737 476.948 33.987 477.586 34.9375C478.237 35.875 479.044 36.6172 480.008 37.1641C480.971 37.6979 482.091 37.9648 483.367 37.9648ZM507.586 22.0859H507.195C507.117 21.8646 506.987 21.5846 506.805 21.2461C506.635 20.9076 506.401 20.5755 506.102 20.25C505.815 19.9245 505.457 19.651 505.027 19.4297C504.598 19.1953 504.083 19.0781 503.484 19.0781C503.029 19.0781 502.618 19.1562 502.254 19.3125C501.902 19.4557 501.603 19.6576 501.355 19.918C501.108 20.1784 500.919 20.4909 500.789 20.8555C500.659 21.207 500.594 21.5911 500.594 22.0078C500.594 22.6849 500.796 23.3294 501.199 23.9414C501.616 24.5534 502.13 25.1654 502.742 25.7773C503.354 26.3763 504.018 26.9818 504.734 27.5938C505.451 28.2057 506.115 28.8438 506.727 29.5078C507.339 30.1719 507.846 30.875 508.25 31.6172C508.667 32.3594 508.875 33.1536 508.875 34C508.875 34.625 508.758 35.2695 508.523 35.9336C508.302 36.5977 507.938 37.1966 507.43 37.7305C506.922 38.2643 506.271 38.7005 505.477 39.0391C504.682 39.3906 503.719 39.5664 502.586 39.5664C501.961 39.5664 501.362 39.5143 500.789 39.4102C500.229 39.306 499.708 39.1758 499.227 39.0195C498.758 38.8763 498.335 38.7201 497.957 38.5508C497.592 38.3685 497.286 38.1992 497.039 38.043L497.391 34.3516H497.801C497.931 34.8073 498.12 35.263 498.367 35.7188C498.628 36.1745 498.94 36.5911 499.305 36.9688C499.682 37.3333 500.118 37.6328 500.613 37.8672C501.121 38.0885 501.701 38.1992 502.352 38.1992C502.807 38.1992 503.237 38.1276 503.641 37.9844C504.044 37.8281 504.389 37.6133 504.676 37.3398C504.975 37.0664 505.21 36.7344 505.379 36.3438C505.548 35.9401 505.633 35.4909 505.633 34.9961C505.633 34.4102 505.516 33.8698 505.281 33.375C505.047 32.8672 504.734 32.3854 504.344 31.9297C503.953 31.4609 503.51 31.0117 503.016 30.582C502.534 30.1523 502.033 29.7161 501.512 29.2734C500.991 28.8307 500.483 28.3815 499.988 27.9258C499.507 27.457 499.07 26.9557 498.68 26.4219C498.289 25.888 497.977 25.3216 497.742 24.7227C497.508 24.1107 497.391 23.4401 497.391 22.7109C497.391 21.9427 497.553 21.2526 497.879 20.6406C498.204 20.0286 498.634 19.5143 499.168 19.0977C499.702 18.668 500.314 18.3424 501.004 18.1211C501.694 17.8867 502.41 17.7695 503.152 17.7695C503.699 17.7695 504.207 17.8086 504.676 17.8867C505.158 17.9648 505.587 18.0625 505.965 18.1797C506.355 18.2839 506.694 18.3945 506.98 18.5117C507.267 18.6159 507.501 18.7005 507.684 18.7656L507.586 22.0859Z" fill="#E0CFBC"/>
<path d="M209.412 64.938H219.032V66.576H209.412V64.938ZM209.62 73.336H220.566V75H207.696V56.8H220.176V58.464H209.62V73.336ZM230.762 75.13C229.635 75.13 228.569 74.974 227.564 74.662C226.559 74.3327 225.77 73.9253 225.198 73.44L226.03 71.984C226.585 72.4 227.295 72.764 228.162 73.076C229.029 73.3707 229.939 73.518 230.892 73.518C232.192 73.518 233.128 73.3187 233.7 72.92C234.272 72.504 234.558 71.958 234.558 71.282C234.558 70.7793 234.393 70.3893 234.064 70.112C233.752 69.8173 233.336 69.6007 232.816 69.462C232.296 69.306 231.715 69.176 231.074 69.072C230.433 68.968 229.791 68.8467 229.15 68.708C228.526 68.5693 227.954 68.37 227.434 68.11C226.914 67.8327 226.489 67.46 226.16 66.992C225.848 66.524 225.692 65.9 225.692 65.12C225.692 64.3747 225.9 63.7073 226.316 63.118C226.732 62.5287 227.339 62.0693 228.136 61.74C228.951 61.3933 229.939 61.22 231.1 61.22C231.984 61.22 232.868 61.3413 233.752 61.584C234.636 61.8093 235.364 62.1127 235.936 62.494L235.13 63.976C234.523 63.56 233.873 63.2653 233.18 63.092C232.487 62.9013 231.793 62.806 231.1 62.806C229.869 62.806 228.959 63.0227 228.37 63.456C227.798 63.872 227.512 64.4093 227.512 65.068C227.512 65.588 227.668 65.9953 227.98 66.29C228.309 66.5847 228.734 66.8187 229.254 66.992C229.791 67.148 230.372 67.278 230.996 67.382C231.637 67.486 232.27 67.616 232.894 67.772C233.535 67.9107 234.116 68.11 234.636 68.37C235.173 68.6127 235.598 68.968 235.91 69.436C236.239 69.8867 236.404 70.4847 236.404 71.23C236.404 72.0273 236.179 72.7207 235.728 73.31C235.295 73.882 234.653 74.3327 233.804 74.662C232.972 74.974 231.958 75.13 230.762 75.13ZM246.707 75.13C245.425 75.13 244.437 74.7833 243.743 74.09C243.05 73.3967 242.703 72.4173 242.703 71.152V58.334H244.549V71.048C244.549 71.8453 244.749 72.4607 245.147 72.894C245.563 73.3273 246.153 73.544 246.915 73.544C247.73 73.544 248.406 73.31 248.943 72.842L249.593 74.168C249.229 74.4973 248.787 74.74 248.267 74.896C247.765 75.052 247.245 75.13 246.707 75.13ZM240.259 62.884V61.35H248.709V62.884H240.259ZM261.196 75.13C260.034 75.13 259.02 74.9133 258.154 74.48C257.287 74.0467 256.611 73.3967 256.126 72.53C255.658 71.6633 255.424 70.58 255.424 69.28V61.35H257.27V69.072C257.27 70.528 257.625 71.6287 258.336 72.374C259.064 73.102 260.078 73.466 261.378 73.466C262.331 73.466 263.154 73.2753 263.848 72.894C264.558 72.4953 265.096 71.9233 265.46 71.178C265.841 70.4327 266.032 69.54 266.032 68.5V61.35H267.878V75H266.11V71.256L266.396 71.932C265.962 72.9373 265.286 73.726 264.368 74.298C263.466 74.8527 262.409 75.13 261.196 75.13ZM281.056 75.13C279.756 75.13 278.586 74.8353 277.546 74.246C276.524 73.6567 275.718 72.842 275.128 71.802C274.539 70.7447 274.244 69.5313 274.244 68.162C274.244 66.7753 274.539 65.562 275.128 64.522C275.718 63.482 276.524 62.676 277.546 62.104C278.586 61.5147 279.756 61.22 281.056 61.22C282.252 61.22 283.318 61.4887 284.254 62.026C285.208 62.5633 285.962 63.352 286.516 64.392C287.088 65.4147 287.374 66.6713 287.374 68.162C287.374 69.6353 287.097 70.892 286.542 71.932C285.988 72.972 285.234 73.7693 284.28 74.324C283.344 74.8613 282.27 75.13 281.056 75.13ZM281.186 73.492C282.157 73.492 283.024 73.2753 283.786 72.842C284.566 72.3913 285.173 71.7673 285.606 70.97C286.057 70.1553 286.282 69.2193 286.282 68.162C286.282 67.0873 286.057 66.1513 285.606 65.354C285.173 64.5567 284.566 63.9413 283.786 63.508C283.024 63.0573 282.157 62.832 281.186 62.832C280.233 62.832 279.375 63.0573 278.612 63.508C277.85 63.9413 277.243 64.5567 276.792 65.354C276.342 66.1513 276.116 67.0873 276.116 68.162C276.116 69.2193 276.342 70.1553 276.792 70.97C277.243 71.7673 277.85 72.3913 278.612 72.842C279.375 73.2753 280.233 73.492 281.186 73.492ZM286.334 75V70.892L286.516 68.136L286.256 65.38V55.708H288.102V75H286.334ZM295.844 75V61.35H297.69V75H295.844ZM296.78 58.334C296.398 58.334 296.078 58.204 295.818 57.944C295.558 57.684 295.428 57.372 295.428 57.008C295.428 56.644 295.558 56.3407 295.818 56.098C296.078 55.838 296.398 55.708 296.78 55.708C297.161 55.708 297.482 55.8293 297.742 56.072C298.002 56.3147 298.132 56.618 298.132 56.982C298.132 57.3633 298.002 57.684 297.742 57.944C297.499 58.204 297.178 58.334 296.78 58.334ZM310.99 75.13C309.673 75.13 308.485 74.8353 307.428 74.246C306.388 73.6393 305.565 72.816 304.958 71.776C304.351 70.7187 304.048 69.514 304.048 68.162C304.048 66.7927 304.351 65.588 304.958 64.548C305.565 63.508 306.388 62.6933 307.428 62.104C308.468 61.5147 309.655 61.22 310.99 61.22C312.342 61.22 313.538 61.5147 314.578 62.104C315.635 62.6933 316.459 63.508 317.048 64.548C317.655 65.588 317.958 66.7927 317.958 68.162C317.958 69.514 317.655 70.7187 317.048 71.776C316.459 72.816 315.635 73.6393 314.578 74.246C313.521 74.8353 312.325 75.13 310.99 75.13ZM310.99 73.492C311.978 73.492 312.853 73.2753 313.616 72.842C314.379 72.3913 314.977 71.7673 315.41 70.97C315.861 70.1553 316.086 69.2193 316.086 68.162C316.086 67.0873 315.861 66.1513 315.41 65.354C314.977 64.5567 314.379 63.9413 313.616 63.508C312.853 63.0573 311.987 62.832 311.016 62.832C310.045 62.832 309.179 63.0573 308.416 63.508C307.653 63.9413 307.047 64.5567 306.596 65.354C306.145 66.1513 305.92 67.0873 305.92 68.162C305.92 69.2193 306.145 70.1553 306.596 70.97C307.047 71.7673 307.653 72.3913 308.416 72.842C309.179 73.2753 310.037 73.492 310.99 73.492ZM336.071 75.156C335.049 75.156 334.087 74.9307 333.185 74.48C332.301 74.0293 331.591 73.388 331.053 72.556L332.171 71.256C332.674 71.984 333.255 72.5387 333.913 72.92C334.572 73.3013 335.3 73.492 336.097 73.492C338.351 73.492 339.477 72.1573 339.477 69.488V58.464H332.821V56.8H341.375V69.41C341.375 71.334 340.925 72.7727 340.023 73.726C339.139 74.6793 337.822 75.156 336.071 75.156ZM354.999 75.13C353.837 75.13 352.823 74.9133 351.957 74.48C351.09 74.0467 350.414 73.3967 349.929 72.53C349.461 71.6633 349.227 70.58 349.227 69.28V61.35H351.073V69.072C351.073 70.528 351.428 71.6287 352.139 72.374C352.867 73.102 353.881 73.466 355.181 73.466C356.134 73.466 356.957 73.2753 357.651 72.894C358.361 72.4953 358.899 71.9233 359.263 71.178C359.644 70.4327 359.835 69.54 359.835 68.5V61.35H361.681V75H359.913V71.256L360.199 71.932C359.765 72.9373 359.089 73.726 358.171 74.298C357.269 74.8527 356.212 75.13 354.999 75.13ZM369.426 75V61.35H371.194V65.068L371.012 64.418C371.393 63.378 372.034 62.5893 372.936 62.052C373.837 61.4973 374.955 61.22 376.29 61.22V63.014C376.22 63.014 376.151 63.014 376.082 63.014C376.012 62.9967 375.943 62.988 375.874 62.988C374.435 62.988 373.308 63.43 372.494 64.314C371.679 65.1807 371.272 66.42 371.272 68.032V75H369.426ZM382.258 75V61.35H384.104V75H382.258ZM381.504 59.218L385.066 55.994H387.536L383.324 59.218H381.504ZM397.274 75.13C395.974 75.13 394.804 74.8353 393.764 74.246C392.742 73.6567 391.936 72.842 391.346 71.802C390.757 70.7447 390.462 69.5313 390.462 68.162C390.462 66.7753 390.757 65.562 391.346 64.522C391.936 63.482 392.742 62.676 393.764 62.104C394.804 61.5147 395.974 61.22 397.274 61.22C398.47 61.22 399.536 61.4887 400.472 62.026C401.426 62.5633 402.18 63.352 402.734 64.392C403.306 65.4147 403.592 66.6713 403.592 68.162C403.592 69.6353 403.315 70.892 402.76 71.932C402.206 72.972 401.452 73.7693 400.498 74.324C399.562 74.8613 398.488 75.13 397.274 75.13ZM397.404 73.492C398.375 73.492 399.242 73.2753 400.004 72.842C400.784 72.3913 401.391 71.7673 401.824 70.97C402.275 70.1553 402.5 69.2193 402.5 68.162C402.5 67.0873 402.275 66.1513 401.824 65.354C401.391 64.5567 400.784 63.9413 400.004 63.508C399.242 63.0573 398.375 62.832 397.404 62.832C396.451 62.832 395.593 63.0573 394.83 63.508C394.068 63.9413 393.461 64.5567 393.01 65.354C392.56 66.1513 392.334 67.0873 392.334 68.162C392.334 69.2193 392.56 70.1553 393.01 70.97C393.461 71.7673 394.068 72.3913 394.83 72.842C395.593 73.2753 396.451 73.492 397.404 73.492ZM402.552 75V70.892L402.734 68.136L402.474 65.38V55.708H404.32V75H402.552ZM412.061 75V61.35H413.907V75H412.061ZM412.997 58.334C412.616 58.334 412.295 58.204 412.035 57.944C411.775 57.684 411.645 57.372 411.645 57.008C411.645 56.644 411.775 56.3407 412.035 56.098C412.295 55.838 412.616 55.708 412.997 55.708C413.379 55.708 413.699 55.8293 413.959 56.072C414.219 56.3147 414.349 56.618 414.349 56.982C414.349 57.3633 414.219 57.684 413.959 57.944C413.717 58.204 413.396 58.334 412.997 58.334ZM427.312 75.13C425.96 75.13 424.747 74.8353 423.672 74.246C422.615 73.6393 421.783 72.816 421.176 71.776C420.569 70.7187 420.266 69.514 420.266 68.162C420.266 66.7927 420.569 65.588 421.176 64.548C421.783 63.508 422.615 62.6933 423.672 62.104C424.747 61.5147 425.96 61.22 427.312 61.22C428.473 61.22 429.522 61.4453 430.458 61.896C431.394 62.3467 432.131 63.0227 432.668 63.924L431.29 64.86C430.822 64.1667 430.241 63.6553 429.548 63.326C428.855 62.9967 428.101 62.832 427.286 62.832C426.315 62.832 425.44 63.0573 424.66 63.508C423.88 63.9413 423.265 64.5567 422.814 65.354C422.363 66.1513 422.138 67.0873 422.138 68.162C422.138 69.2367 422.363 70.1727 422.814 70.97C423.265 71.7673 423.88 72.3913 424.66 72.842C425.44 73.2753 426.315 73.492 427.286 73.492C428.101 73.492 428.855 73.3273 429.548 72.998C430.241 72.6687 430.822 72.166 431.29 71.49L432.668 72.426C432.131 73.31 431.394 73.986 430.458 74.454C429.522 74.9047 428.473 75.13 427.312 75.13ZM444.23 75.13C442.912 75.13 441.725 74.8353 440.668 74.246C439.628 73.6393 438.804 72.816 438.198 71.776C437.591 70.7187 437.288 69.514 437.288 68.162C437.288 66.7927 437.591 65.588 438.198 64.548C438.804 63.508 439.628 62.6933 440.668 62.104C441.708 61.5147 442.895 61.22 444.23 61.22C445.582 61.22 446.778 61.5147 447.818 62.104C448.875 62.6933 449.698 63.508 450.288 64.548C450.894 65.588 451.198 66.7927 451.198 68.162C451.198 69.514 450.894 70.7187 450.288 71.776C449.698 72.816 448.875 73.6393 447.818 74.246C446.76 74.8353 445.564 75.13 444.23 75.13ZM444.23 73.492C445.218 73.492 446.093 73.2753 446.856 72.842C447.618 72.3913 448.216 71.7673 448.65 70.97C449.1 70.1553 449.326 69.2193 449.326 68.162C449.326 67.0873 449.1 66.1513 448.65 65.354C448.216 64.5567 447.618 63.9413 446.856 63.508C446.093 63.0573 445.226 62.832 444.256 62.832C443.285 62.832 442.418 63.0573 441.656 63.508C440.893 63.9413 440.286 64.5567 439.836 65.354C439.385 66.1513 439.16 67.0873 439.16 68.162C439.16 69.2193 439.385 70.1553 439.836 70.97C440.286 71.7673 440.893 72.3913 441.656 72.842C442.418 73.2753 443.276 73.492 444.23 73.492Z" fill="#E0CFBC"/>
<line x1="140.656" y1="46.125" x2="516.469" y2="46.125" stroke="#E0CFBC" stroke-width="0.75"/>
<g clip-path="url(#clip0_4_293)">
<path d="M521.236 47.1667C520.97 46.7348 520.628 46.3412 520.222 46C520.63 45.6606 520.973 45.2667 521.236 44.8333C522.304 44.9133 523.352 45.3067 524.177 46.02C523.36 46.7267 522.311 47.1033 521.236 47.1667ZM518.993 46C520.257 46.7167 521.093 47.94 521.093 49.3333C517.239 49.3333 516.514 46.2267 516.468 46C516.511 45.7733 517.239 42.6667 521.093 42.6667C521.093 44.06 520.257 45.2833 518.993 46ZM522.947 46.0167C522.547 45.7967 522.103 45.6433 521.641 45.56L521.267 46L521.645 46.45C522.107 46.3733 522.55 46.2267 522.947 46.0167ZM517.251 46C517.251 46 517.624 48 520.226 48.58C519.552 46.6667 517.586 46 517.586 46C517.586 46 519.937 45 520.222 43.42C517.624 44 517.251 46 517.251 46Z" fill="#E0CFBC"/>
</g>
<g clip-path="url(#clip1_4_293)">
<path d="M135.889 44.8333C136.155 45.2652 136.497 45.6588 136.903 46C136.495 46.3394 136.152 46.7333 135.889 47.1667C134.821 47.0867 133.773 46.6933 132.948 45.98C133.765 45.2733 134.814 44.8967 135.889 44.8333ZM138.132 46C136.868 45.2833 136.032 44.06 136.032 42.6667C139.886 42.6667 140.611 45.7733 140.657 46C140.614 46.2267 139.886 49.3333 136.032 49.3333C136.032 47.94 136.868 46.7167 138.132 46ZM134.178 45.9833C134.578 46.2033 135.022 46.3567 135.484 46.44L135.858 46L135.48 45.55C135.018 45.6267 134.575 45.7733 134.178 45.9833ZM139.874 46C139.874 46 139.501 44 136.899 43.42C137.573 45.3333 139.539 46 139.539 46C139.539 46 137.188 47 136.903 48.58C139.501 48 139.874 46 139.874 46Z" fill="#E0CFBC"/>
</g>
<path d="M30 44C30 50.213 30 48.5 30 48.5C30 47.5 30 49.212 30 43V38V25.7895V21.375V18.5V17V15.614V13.5V12C28.8624 12.0009 27.7518 12.3468 26.8148 12.9921C25.8778 13.6373 25.1586 14.5515 24.752 15.614C21.276 16.393 17.939 17.747 15.071 18.924C14.418 19.192 13.499 19.554 12.782 19.835C12.3009 19.6157 11.7787 19.5015 11.25 19.5C10.2554 19.5 9.30161 19.8951 8.59835 20.5983C7.89509 21.3016 7.5 22.2554 7.5 23.25C7.50127 23.8249 7.63542 24.3918 7.89198 24.9063C8.14854 25.4208 8.52057 25.869 8.979 26.216L1.674 44.813H0C0 51.026 5.037 56.063 11.25 56.063C17.463 56.063 22.5 51.026 22.5 44.813H20.825L13.52 26.217C13.9786 25.8699 14.3509 25.4216 14.6076 24.9069C14.8643 24.3922 14.9986 23.8252 15 23.25C15 23.163 14.979 23.081 14.974 22.995L15.909 22.616C18.54 21.535 21.587 20.292 24.714 19.533C24.9968 20.3152 25.4495 21.0251 26.0394 21.6114C26.6294 22.1978 27.342 22.646 28.126 22.924V28.656H26.976V46.688H25.726V55.517C19.523 56.668 15 60.252 15 64.5H13.125V68.25H9.375V72H30V68V65.5V63C30 58.752 30 58 30 55.517V46.688V28.655V25.7895V23.585V21.375V18.5V23.585C30 23.585 30 25.126 30 25.5V25.7895V30.5V36.2071V44.813V44ZM11.25 21.375C11.4999 21.3693 11.7485 21.4136 11.9811 21.5053C12.2136 21.597 12.4255 21.7343 12.6043 21.9091C12.7831 22.0839 12.9251 22.2926 13.022 22.5231C13.119 22.7535 13.1689 23.001 13.1688 23.251C13.1687 23.501 13.1187 23.7485 13.0216 23.9789C12.9246 24.2093 12.7824 24.4179 12.6036 24.5926C12.4247 24.7673 12.2128 24.9045 11.9801 24.9961C11.7475 25.0877 11.4989 25.1318 11.249 25.126C10.7591 25.1146 10.2931 24.9119 9.9507 24.5613C9.6083 24.2107 9.41668 23.7401 9.41681 23.25C9.41694 22.76 9.60882 22.2894 9.9514 21.939C10.294 21.5886 10.7601 21.3862 11.25 21.375ZM18.889 44.813H3.608L10.63 26.938C10.833 26.972 11.038 27 11.25 27C11.462 27 11.666 26.972 11.868 26.937L18.889 44.813ZM30 25.7895V39.5V41.5V34V25.7895Z" fill="#E0CFBC"/>
<path d="M114 64.75V64.625C114.042 64.5208 114.073 64.3646 114.094 64.1562C114.115 63.9479 114.125 63.7604 114.125 63.5938C114.125 62.9479 114.031 62.2396 113.844 61.4688C113.677 60.6771 113.344 59.6979 112.844 58.5312L109.062 50.0312C107.896 49.9896 106.344 49.9688 104.406 49.9688C102.469 49.9688 100.375 49.9688 98.125 49.9688C96.4792 49.9688 94.8854 49.9688 93.3438 49.9688C91.8229 49.9688 90.4479 49.9896 89.2188 50.0312L85.625 58.2812C85.3125 59.0521 84.9792 59.8958 84.625 60.8125C84.2708 61.7292 84.0938 62.6562 84.0938 63.5938C84.0938 63.8646 84.1146 64.0938 84.1562 64.2812C84.1979 64.4479 84.2396 64.5625 84.2812 64.625V64.75H78.3973L78.26 64.2812C78.635 63.8854 78.75 63.5312 79.3125 62.5312C79.875 61.5104 80.4896 60.2396 81.1562 58.7188L99.0625 19H101.562L118.531 57.1875C118.927 58.0833 119.333 58.9583 119.75 59.8125C120.188 60.6458 120.594 61.3958 120.969 62.0625C121.344 62.7292 121.677 63.2917 121.969 63.75C122.26 64.2083 122.458 64.5 122.562 64.625V64.75H114ZM93.75 47.2812C94.9583 47.2812 96.1979 47.2812 97.4688 47.2812C98.7396 47.2604 99.9792 47.25 101.188 47.25C102.417 47.2292 103.594 47.2188 104.719 47.2188C105.844 47.1979 106.865 47.1771 107.781 47.1562L99 27.3125L90.375 47.2812H93.75Z" fill="#E0CFBC"/>
<path d="M76.3438 51.875C76.3438 53.75 76.3646 55.3854 76.4062 56.7812C76.4479 58.1771 76.5 59.3854 76.5625 60.4062C76.6458 61.4062 76.7396 62.25 76.8438 62.9375C76.9688 63.625 77.1042 64.1875 77.25 64.625V64.75H71V64L70.375 63.6289C70.2599 63.5896 70.2606 63.4356 70.375 62.9375C70.5 62.25 70.5938 61.4062 70.6562 60.4062C70.7396 59.3854 70.8021 58.1771 70.8438 56.7812C70.8854 55.3854 70.9062 53.75 70.9062 51.875V49.7188L61.8175 37.7188C62.5547 36.0191 62.9799 33.3771 63 31.1562H64.8125C64.8125 31.5312 64.9479 32.1146 65.2188 32.9062C65.4896 33.6771 66.0417 34.625 66.875 35.75L74.8125 46.25L82.9375 35.3125C83.5208 34.5208 83.9583 33.7396 84.25 32.9688C84.5625 32.1979 84.7188 31.5938 84.7188 31.1562H90.4375V31.2812C89.9167 31.6354 89.375 32.0833 88.8125 32.625C88.2708 33.1667 87.6354 33.9375 86.9062 34.9375L76.3438 49.25V51.875Z" fill="#E0CFBC"/>
<path d="M41.5938 52.5312C41.5938 54.3021 41.6146 55.8542 41.6562 57.1875C41.7188 58.5 41.7812 59.6354 41.8438 60.5938C41.9271 61.5521 42.0208 62.3542 42.125 63C42.25 63.6458 42.375 64.1875 42.5 64.625V64.75H35V64.625C35.125 64.1875 35.2396 63.6458 35.3438 63C35.4688 62.3542 35.5729 61.5521 35.6562 60.5938C35.7396 59.6354 35.8021 58.5 35.8438 57.1875C35.8854 55.8542 35.9062 54.3021 35.9062 52.5312V32.1875C35.9062 30.4167 35.8854 28.875 35.8438 27.5625C35.8021 26.2292 35.7396 25.0833 35.6562 24.125C35.5729 23.1458 35.4688 22.3333 35.3438 21.6875C35.2396 21.0417 35.125 20.5 35 20.0625V19.9375C35.4167 19.9792 35.8542 20.0208 36.3125 20.0625C36.7083 20.1042 37.1458 20.1354 37.625 20.1562C38.125 20.1562 38.6354 20.1562 39.1562 20.1562C39.9688 20.1562 41.0625 20.0625 42.4375 19.875C43.8333 19.6667 45.6042 19.5625 47.75 19.5625C49.75 19.5625 51.5938 19.8333 53.2812 20.375C54.9896 20.9167 56.4688 21.7083 57.7188 22.75C58.9688 23.7917 59.9375 25.0729 60.625 26.5938C61.3333 28.0938 61.6875 29.8021 61.6875 31.7188C61.6875 33.2188 61.4896 34.6146 61.0938 35.9062C60.7188 37.1771 60.1771 38.3333 59.4688 39.375C58.7812 40.4167 57.9479 41.3438 56.9688 42.1562C55.9896 42.9479 54.8958 43.6146 53.6875 44.1562L64.6562 59.5625C65.1979 60.3333 65.6979 61 66.1562 61.5625C66.6354 62.125 67.0833 62.6042 67.5 63C67.9375 63.3958 68.3542 63.7292 68.75 64C69.1458 64.25 69.5521 64.4583 69.9688 64.625V64.75H60.9375C60.875 64.3542 60.6667 63.8333 60.3125 63.1875C59.9792 62.5208 59.5833 61.8646 59.125 61.2188L48.0625 45.625C47.0417 45.7292 45.9896 45.7812 44.9062 45.7812C43.8229 45.7812 42.7188 45.6875 41.5938 45.5V52.5312ZM41.5938 43.0625C43.6354 43.4375 45.5 43.4896 47.1875 43.2188C48.8958 42.9479 50.3542 42.3542 51.5625 41.4375C52.7917 40.5208 53.7396 39.2812 54.4062 37.7188C55.0938 36.1354 55.4375 34.2188 55.4375 31.9688C55.4375 30.4062 55.2604 28.9896 54.9062 27.7188C54.5521 26.4479 54.0208 25.375 53.3125 24.5C52.625 23.6042 51.75 22.9167 50.6875 22.4375C49.625 21.9375 48.3854 21.6875 46.9688 21.6875C46.0729 21.6875 45.2917 21.7292 44.625 21.8125C43.9583 21.875 43.3958 21.9479 42.9375 22.0312C42.3958 22.1354 41.9479 22.25 41.5938 22.375V43.0625Z" fill="#E0CFBC"/>
<defs>
<clipPath id="clip0_4_293">
<rect width="8" height="9.25074" fill="white" transform="matrix(0 1 -1 0 524.562 42)"/>
</clipPath>
<clipPath id="clip1_4_293">
<rect width="8" height="9.25074" fill="white" transform="matrix(0 -1 1 0 132.562 50)"/>
</clipPath>
</defs>
</svg>
