<svg width="393" height="142" viewBox="0 0 393 142" fill="none" xmlns="http://www.w3.org/2000/svg">
<path d="M20.9688 88.8047C21.2292 88.8438 21.4896 88.8763 21.75 88.9023C22.0234 88.9154 22.2839 88.9219 22.5312 88.9219C24.1589 88.9219 25.3893 88.4857 26.2227 87.6133C27.069 86.7409 27.4922 85.4323 27.4922 83.6875C27.4922 82.2552 27.1536 81.1224 26.4766 80.2891C25.8125 79.4557 24.8294 79.0391 23.5273 79.0391C23.1107 79.0391 22.7396 79.0586 22.4141 79.0977C22.1016 79.1237 21.8346 79.1562 21.6133 79.1953C21.3659 79.2474 21.151 79.2995 20.9688 79.3516V88.8047ZM23.957 90.0742C23.6966 90.1133 23.4362 90.1393 23.1758 90.1523C22.9284 90.1523 22.6745 90.1523 22.4141 90.1523C22.2057 90.1523 21.9779 90.1458 21.7305 90.1328C21.4831 90.1198 21.2292 90.1003 20.9688 90.0742V91.0312C20.9688 92.1901 20.9818 93.2057 21.0078 94.0781C21.0339 94.9375 21.0664 95.6797 21.1055 96.3047C21.1576 96.9297 21.2161 97.457 21.2812 97.8867C21.3464 98.3034 21.4245 98.6484 21.5156 98.9219V99H17.0039V98.9219C17.0951 98.6484 17.1732 98.2969 17.2383 97.8672C17.3164 97.4375 17.375 96.9102 17.4141 96.2852C17.4661 95.6471 17.5052 94.8919 17.5312 94.0195C17.5573 93.1471 17.5703 92.125 17.5703 90.9531V86.0312C17.5703 84.8594 17.5573 83.8438 17.5312 82.9844C17.5052 82.112 17.4661 81.3633 17.4141 80.7383C17.375 80.1003 17.3164 79.5664 17.2383 79.1367C17.1732 78.707 17.0951 78.3555 17.0039 78.082V78.0039C17.2122 78.0169 17.4336 78.0299 17.668 78.043C17.8633 78.056 18.0781 78.069 18.3125 78.082C18.5599 78.082 18.8073 78.082 19.0547 78.082C19.4714 78.082 20.0898 78.043 20.9102 77.9648C21.7305 77.8867 22.694 77.8477 23.8008 77.8477C24.9206 77.8477 25.9362 77.9844 26.8477 78.2578C27.7721 78.5312 28.5599 78.9219 29.2109 79.4297C29.875 79.9375 30.3828 80.556 30.7344 81.2852C31.099 82.0143 31.2812 82.8281 31.2812 83.7266C31.2812 84.4297 31.1836 85.0742 30.9883 85.6602C30.793 86.2331 30.5195 86.7539 30.168 87.2227C29.8164 87.6784 29.3997 88.082 28.918 88.4336C28.4362 88.7852 27.9023 89.0911 27.3164 89.3516L31.3984 95.1133C31.75 95.582 32.1016 96.0312 32.4531 96.4609C32.8177 96.8906 33.1628 97.2747 33.4883 97.6133C33.8138 97.9518 34.1198 98.2383 34.4062 98.4727C34.6927 98.694 34.9336 98.8438 35.1289 98.9219V99H30.0117C30.0117 98.8828 29.9271 98.681 29.7578 98.3945C29.6016 98.0951 29.4128 97.7891 29.1914 97.4766C28.9831 97.151 28.7682 96.8385 28.5469 96.5391C28.3385 96.2396 28.1823 96.0182 28.0781 95.875L23.957 90.0742ZM35.6562 88.4336C35.6562 86.8971 35.9427 85.4714 36.5156 84.1562C37.1016 82.8411 37.8958 81.7018 38.8984 80.7383C39.901 79.7617 41.0859 79 42.4531 78.4531C43.8203 77.9062 45.2852 77.6328 46.8477 77.6328C48.3841 77.6328 49.8294 77.8932 51.1836 78.4141C52.5508 78.9219 53.7357 79.651 54.7383 80.6016C55.7539 81.5521 56.5547 82.7044 57.1406 84.0586C57.7266 85.4128 58.0195 86.9297 58.0195 88.6094C58.0195 90.0026 57.7721 91.3503 57.2773 92.6523C56.7826 93.9414 56.0599 95.0872 55.1094 96.0898C54.1589 97.0794 52.987 97.8737 51.5938 98.4727C50.2005 99.0586 48.6055 99.3516 46.8086 99.3516C45.2852 99.3516 43.8464 99.0977 42.4922 98.5898C41.138 98.082 39.9531 97.3594 38.9375 96.4219C37.9219 95.4714 37.1211 94.3255 36.5352 92.9844C35.9492 91.6302 35.6562 90.1133 35.6562 88.4336ZM47.2969 97.9648C48.2865 97.9648 49.1979 97.7695 50.0312 97.3789C50.8646 96.9883 51.5807 96.4284 52.1797 95.6992C52.7917 94.9701 53.2604 94.0846 53.5859 93.043C53.9245 91.9883 54.0938 90.8034 54.0938 89.4883C54.0938 87.9909 53.931 86.6042 53.6055 85.3281C53.293 84.0521 52.8112 82.9518 52.1602 82.0273C51.5221 81.0898 50.7214 80.3607 49.7578 79.8398C48.7943 79.306 47.668 79.0391 46.3789 79.0391C45.3893 79.0391 44.4779 79.2279 43.6445 79.6055C42.8112 79.9831 42.0885 80.5299 41.4766 81.2461C40.8776 81.9622 40.4089 82.8411 40.0703 83.8828C39.7318 84.9245 39.5625 86.1094 39.5625 87.4375C39.5625 88.9219 39.7253 90.3086 40.0508 91.5977C40.3893 92.8737 40.8776 93.987 41.5156 94.9375C42.1667 95.875 42.974 96.6172 43.9375 97.1641C44.901 97.6979 46.0208 97.9648 47.2969 97.9648ZM60.6367 98.9219C60.806 98.7396 60.9753 98.4076 61.1445 97.9258C61.3268 97.444 61.4701 96.9232 61.5742 96.3633C61.7305 95.4518 61.8997 94.4167 62.082 93.2578C62.2773 92.0859 62.4661 90.8815 62.6484 89.6445C62.8438 88.4076 63.0326 87.1771 63.2148 85.9531C63.3971 84.7161 63.5664 83.5703 63.7227 82.5156C63.8789 81.4609 64.0091 80.5365 64.1133 79.7422C64.2174 78.9479 64.2891 78.3685 64.3281 78.0039H66.6523L75.9688 94.6836L85.5195 78.0039H87.4141L89.7578 94.3125C89.875 95.0547 89.9857 95.6862 90.0898 96.207C90.207 96.7279 90.3177 97.1706 90.4219 97.5352C90.526 97.8867 90.6302 98.1732 90.7344 98.3945C90.8385 98.6159 90.9297 98.7917 91.0078 98.9219V99H86.2031V98.9219C86.2422 98.8177 86.2878 98.6419 86.3398 98.3945C86.4049 98.1471 86.4375 97.8542 86.4375 97.5156C86.4375 97.2943 86.418 96.9753 86.3789 96.5586C86.3529 96.1419 86.3073 95.7318 86.2422 95.3281L84.5625 83.3555L75.6758 98.9609L74.2891 98.7656L65.5586 83.2383C65.2331 85.4258 64.9466 87.4505 64.6992 89.3125C64.5951 90.1068 64.4909 90.901 64.3867 91.6953C64.2826 92.4896 64.1914 93.2383 64.1133 93.9414C64.0352 94.6315 63.9701 95.2435 63.918 95.7773C63.8659 96.3112 63.8398 96.7083 63.8398 96.9688C63.8398 97.2943 63.8464 97.5807 63.8594 97.8281C63.8724 98.0625 63.8919 98.2708 63.918 98.4531C63.944 98.6615 63.9701 98.8438 63.9961 99H60.6367V98.9219ZM95.168 78.0039C96.444 78.0039 97.7526 78.0039 99.0938 78.0039C100.435 77.9909 101.678 77.9779 102.824 77.9648C103.97 77.9388 104.953 77.9128 105.773 77.8867C106.607 77.8607 107.154 77.8216 107.414 77.7695L106.652 79.8789C106.301 79.7878 105.904 79.7031 105.461 79.625C105.07 79.5599 104.595 79.5013 104.035 79.4492C103.488 79.3841 102.85 79.3516 102.121 79.3516C101.861 79.3516 101.561 79.3646 101.223 79.3906C100.884 79.4036 100.559 79.4232 100.246 79.4492C99.8815 79.4753 99.5104 79.5013 99.1328 79.5273V87.2422C100.188 87.2292 101.138 87.2031 101.984 87.1641C102.831 87.125 103.553 87.0729 104.152 87.0078C104.855 86.9557 105.474 86.8841 106.008 86.793L105.539 89.1172C104.823 89.026 104.1 88.9479 103.371 88.8828C102.746 88.8177 102.056 88.7656 101.301 88.7266C100.546 88.6745 99.8229 88.6484 99.1328 88.6484V97.5156C100.344 97.5156 101.457 97.4701 102.473 97.3789C103.488 97.2747 104.374 97.1641 105.129 97.0469C106.014 96.9036 106.815 96.7409 107.531 96.5586L107.082 99.1172C106.887 99.1042 106.568 99.0846 106.125 99.0586C105.695 99.0456 105.24 99.0326 104.758 99.0195C104.289 99.0195 103.846 99.013 103.43 99C103.013 99 102.727 99 102.57 99H95.168V98.9219C95.2591 98.6484 95.3372 98.2969 95.4023 97.8672C95.4805 97.4375 95.5391 96.9102 95.5781 96.2852C95.6302 95.6471 95.6693 94.8919 95.6953 94.0195C95.7214 93.1471 95.7344 92.125 95.7344 90.9531V86.0312C95.7344 84.8594 95.7214 83.8438 95.6953 82.9844C95.6693 82.112 95.6302 81.3633 95.5781 80.7383C95.5391 80.1003 95.4805 79.5664 95.4023 79.1367C95.3372 78.707 95.2591 78.3555 95.168 78.082V78.0039ZM115.852 88.8047C116.112 88.8438 116.372 88.8763 116.633 88.9023C116.906 88.9154 117.167 88.9219 117.414 88.9219C119.042 88.9219 120.272 88.4857 121.105 87.6133C121.952 86.7409 122.375 85.4323 122.375 83.6875C122.375 82.2552 122.036 81.1224 121.359 80.2891C120.695 79.4557 119.712 79.0391 118.41 79.0391C117.993 79.0391 117.622 79.0586 117.297 79.0977C116.984 79.1237 116.717 79.1562 116.496 79.1953C116.249 79.2474 116.034 79.2995 115.852 79.3516V88.8047ZM118.84 90.0742C118.579 90.1133 118.319 90.1393 118.059 90.1523C117.811 90.1523 117.557 90.1523 117.297 90.1523C117.089 90.1523 116.861 90.1458 116.613 90.1328C116.366 90.1198 116.112 90.1003 115.852 90.0742V91.0312C115.852 92.1901 115.865 93.2057 115.891 94.0781C115.917 94.9375 115.949 95.6797 115.988 96.3047C116.04 96.9297 116.099 97.457 116.164 97.8867C116.229 98.3034 116.307 98.6484 116.398 98.9219V99H111.887V98.9219C111.978 98.6484 112.056 98.2969 112.121 97.8672C112.199 97.4375 112.258 96.9102 112.297 96.2852C112.349 95.6471 112.388 94.8919 112.414 94.0195C112.44 93.1471 112.453 92.125 112.453 90.9531V86.0312C112.453 84.8594 112.44 83.8438 112.414 82.9844C112.388 82.112 112.349 81.3633 112.297 80.7383C112.258 80.1003 112.199 79.5664 112.121 79.1367C112.056 78.707 111.978 78.3555 111.887 78.082V78.0039C112.095 78.0169 112.316 78.0299 112.551 78.043C112.746 78.056 112.961 78.069 113.195 78.082C113.443 78.082 113.69 78.082 113.938 78.082C114.354 78.082 114.973 78.043 115.793 77.9648C116.613 77.8867 117.577 77.8477 118.684 77.8477C119.803 77.8477 120.819 77.9844 121.73 78.2578C122.655 78.5312 123.443 78.9219 124.094 79.4297C124.758 79.9375 125.266 80.556 125.617 81.2852C125.982 82.0143 126.164 82.8281 126.164 83.7266C126.164 84.4297 126.066 85.0742 125.871 85.6602C125.676 86.2331 125.402 86.7539 125.051 87.2227C124.699 87.6784 124.283 88.082 123.801 88.4336C123.319 88.7852 122.785 89.0911 122.199 89.3516L126.281 95.1133C126.633 95.582 126.984 96.0312 127.336 96.4609C127.701 96.8906 128.046 97.2747 128.371 97.6133C128.697 97.9518 129.003 98.2383 129.289 98.4727C129.576 98.694 129.816 98.8438 130.012 98.9219V99H124.895C124.895 98.8828 124.81 98.681 124.641 98.3945C124.484 98.0951 124.296 97.7891 124.074 97.4766C123.866 97.151 123.651 96.8385 123.43 96.5391C123.221 96.2396 123.065 96.0182 122.961 95.875L118.84 90.0742ZM130.539 88.4336C130.539 86.8971 130.826 85.4714 131.398 84.1562C131.984 82.8411 132.779 81.7018 133.781 80.7383C134.784 79.7617 135.969 79 137.336 78.4531C138.703 77.9062 140.168 77.6328 141.73 77.6328C143.267 77.6328 144.712 77.8932 146.066 78.4141C147.434 78.9219 148.618 79.651 149.621 80.6016C150.637 81.5521 151.438 82.7044 152.023 84.0586C152.609 85.4128 152.902 86.9297 152.902 88.6094C152.902 90.0026 152.655 91.3503 152.16 92.6523C151.665 93.9414 150.943 95.0872 149.992 96.0898C149.042 97.0794 147.87 97.8737 146.477 98.4727C145.083 99.0586 143.488 99.3516 141.691 99.3516C140.168 99.3516 138.729 99.0977 137.375 98.5898C136.021 98.082 134.836 97.3594 133.82 96.4219C132.805 95.4714 132.004 94.3255 131.418 92.9844C130.832 91.6302 130.539 90.1133 130.539 88.4336ZM142.18 97.9648C143.169 97.9648 144.081 97.7695 144.914 97.3789C145.747 96.9883 146.464 96.4284 147.062 95.6992C147.674 94.9701 148.143 94.0846 148.469 93.043C148.807 91.9883 148.977 90.8034 148.977 89.4883C148.977 87.9909 148.814 86.6042 148.488 85.3281C148.176 84.0521 147.694 82.9518 147.043 82.0273C146.405 81.0898 145.604 80.3607 144.641 79.8398C143.677 79.306 142.551 79.0391 141.262 79.0391C140.272 79.0391 139.361 79.2279 138.527 79.6055C137.694 79.9831 136.971 80.5299 136.359 81.2461C135.76 81.9622 135.292 82.8411 134.953 83.8828C134.615 84.9245 134.445 86.1094 134.445 87.4375C134.445 88.9219 134.608 90.3086 134.934 91.5977C135.272 92.8737 135.76 93.987 136.398 94.9375C137.049 95.875 137.857 96.6172 138.82 97.1641C139.784 97.6979 140.904 97.9648 142.18 97.9648ZM178.078 90.9531C178.078 92.125 178.091 93.1471 178.117 94.0195C178.143 94.8919 178.176 95.6471 178.215 96.2852C178.267 96.9102 178.326 97.4375 178.391 97.8672C178.469 98.2969 178.553 98.6484 178.645 98.9219V99H174.113V98.9219C174.204 98.6484 174.283 98.2969 174.348 97.8672C174.426 97.4375 174.484 96.9102 174.523 96.2852C174.576 95.6471 174.615 94.8919 174.641 94.0195C174.667 93.1471 174.68 92.125 174.68 90.9531V89.6055L167.648 80.3281C167.18 79.7031 166.73 79.2018 166.301 78.8242C165.871 78.4336 165.546 78.1862 165.324 78.082V78.0039H170.871C170.871 78.2383 170.956 78.6029 171.125 79.0977C171.294 79.5794 171.639 80.1719 172.16 80.875L177.121 87.4375L182.199 80.6016C182.564 80.1068 182.837 79.6185 183.02 79.1367C183.215 78.6549 183.312 78.2773 183.312 78.0039H186.887V78.082C186.561 78.3034 186.223 78.5833 185.871 78.9219C185.533 79.2604 185.135 79.7422 184.68 80.3672L178.078 89.3125V90.9531ZM213.391 92.3984C213.039 92.3984 212.596 92.3984 212.062 92.3984C211.542 92.3984 210.969 92.3984 210.344 92.3984C209.719 92.3984 209.074 92.3984 208.41 92.3984C207.746 92.3984 207.115 92.4049 206.516 92.418C205.917 92.418 205.37 92.4245 204.875 92.4375C204.38 92.4375 203.996 92.4375 203.723 92.4375L203 93.9609C202.688 94.5859 202.421 95.1328 202.199 95.6016C201.978 96.0573 201.796 96.4609 201.652 96.8125C201.509 97.1641 201.405 97.4701 201.34 97.7305C201.275 97.9779 201.242 98.2122 201.242 98.4336C201.242 98.5768 201.249 98.6875 201.262 98.7656C201.275 98.8307 201.294 98.8828 201.32 98.9219V99H197.883V98.9219C197.974 98.8307 198.117 98.6354 198.312 98.3359C198.508 98.0234 198.729 97.6458 198.977 97.2031C199.237 96.7604 199.51 96.2591 199.797 95.6992C200.096 95.1393 200.389 94.5599 200.676 93.9609L208.645 77.5156H210.109L217.922 93.9609C218.221 94.5859 218.521 95.1849 218.82 95.7578C219.133 96.3307 219.419 96.8451 219.68 97.3008C219.94 97.7435 220.168 98.1146 220.363 98.4141C220.559 98.7005 220.689 98.8698 220.754 98.9219V99H215.754C215.78 98.8958 215.793 98.8047 215.793 98.7266C215.793 98.6354 215.793 98.5378 215.793 98.4336C215.793 98.1471 215.728 97.8021 215.598 97.3984C215.48 96.9948 215.331 96.5846 215.148 96.168C214.979 95.7383 214.797 95.3281 214.602 94.9375C214.419 94.5469 214.27 94.2214 214.152 93.9609L213.391 92.3984ZM204.484 90.875H205.676C206.223 90.875 206.802 90.875 207.414 90.875C208.039 90.862 208.664 90.8555 209.289 90.8555C209.914 90.8555 210.52 90.8555 211.105 90.8555C211.691 90.8424 212.219 90.8359 212.688 90.8359L208.645 82.2031L204.484 90.875ZM232.648 82.0859H232.258C232.18 81.8646 232.049 81.5846 231.867 81.2461C231.698 80.9076 231.464 80.5755 231.164 80.25C230.878 79.9245 230.52 79.651 230.09 79.4297C229.66 79.1953 229.146 79.0781 228.547 79.0781C228.091 79.0781 227.681 79.1562 227.316 79.3125C226.965 79.4557 226.665 79.6576 226.418 79.918C226.171 80.1784 225.982 80.4909 225.852 80.8555C225.721 81.207 225.656 81.5911 225.656 82.0078C225.656 82.6849 225.858 83.3294 226.262 83.9414C226.678 84.5534 227.193 85.1654 227.805 85.7773C228.417 86.3763 229.081 86.9818 229.797 87.5938C230.513 88.2057 231.177 88.8438 231.789 89.5078C232.401 90.1719 232.909 90.875 233.312 91.6172C233.729 92.3594 233.938 93.1536 233.938 94C233.938 94.625 233.82 95.2695 233.586 95.9336C233.365 96.5977 233 97.1966 232.492 97.7305C231.984 98.2643 231.333 98.7005 230.539 99.0391C229.745 99.3906 228.781 99.5664 227.648 99.5664C227.023 99.5664 226.424 99.5143 225.852 99.4102C225.292 99.306 224.771 99.1758 224.289 99.0195C223.82 98.8763 223.397 98.7201 223.02 98.5508C222.655 98.3685 222.349 98.1992 222.102 98.043L222.453 94.3516H222.863C222.993 94.8073 223.182 95.263 223.43 95.7188C223.69 96.1745 224.003 96.5911 224.367 96.9688C224.745 97.3333 225.181 97.6328 225.676 97.8672C226.184 98.0885 226.763 98.1992 227.414 98.1992C227.87 98.1992 228.299 98.1276 228.703 97.9844C229.107 97.8281 229.452 97.6133 229.738 97.3398C230.038 97.0664 230.272 96.7344 230.441 96.3438C230.611 95.9401 230.695 95.4909 230.695 94.9961C230.695 94.4102 230.578 93.8698 230.344 93.375C230.109 92.8672 229.797 92.3854 229.406 91.9297C229.016 91.4609 228.573 91.0117 228.078 90.582C227.596 90.1523 227.095 89.7161 226.574 89.2734C226.053 88.8307 225.546 88.3815 225.051 87.9258C224.569 87.457 224.133 86.9557 223.742 86.4219C223.352 85.888 223.039 85.3216 222.805 84.7227C222.57 84.1107 222.453 83.4401 222.453 82.7109C222.453 81.9427 222.616 81.2526 222.941 80.6406C223.267 80.0286 223.697 79.5143 224.23 79.0977C224.764 78.668 225.376 78.3424 226.066 78.1211C226.757 77.8867 227.473 77.7695 228.215 77.7695C228.762 77.7695 229.27 77.8086 229.738 77.8867C230.22 77.9648 230.65 78.0625 231.027 78.1797C231.418 78.2839 231.757 78.3945 232.043 78.5117C232.329 78.6159 232.564 78.7005 232.746 78.7656L232.648 82.0859ZM236.906 88.4336C236.906 86.8971 237.193 85.4714 237.766 84.1562C238.352 82.8411 239.146 81.7018 240.148 80.7383C241.151 79.7617 242.336 79 243.703 78.4531C245.07 77.9062 246.535 77.6328 248.098 77.6328C249.634 77.6328 251.079 77.8932 252.434 78.4141C253.801 78.9219 254.986 79.651 255.988 80.6016C257.004 81.5521 257.805 82.7044 258.391 84.0586C258.977 85.4128 259.27 86.9297 259.27 88.6094C259.27 90.0026 259.022 91.3503 258.527 92.6523C258.033 93.9414 257.31 95.0872 256.359 96.0898C255.409 97.0794 254.237 97.8737 252.844 98.4727C251.451 99.0586 249.855 99.3516 248.059 99.3516C246.535 99.3516 245.096 99.0977 243.742 98.5898C242.388 98.082 241.203 97.3594 240.188 96.4219C239.172 95.4714 238.371 94.3255 237.785 92.9844C237.199 91.6302 236.906 90.1133 236.906 88.4336ZM248.547 97.9648C249.536 97.9648 250.448 97.7695 251.281 97.3789C252.115 96.9883 252.831 96.4284 253.43 95.6992C254.042 94.9701 254.51 94.0846 254.836 93.043C255.174 91.9883 255.344 90.8034 255.344 89.4883C255.344 87.9909 255.181 86.6042 254.855 85.3281C254.543 84.0521 254.061 82.9518 253.41 82.0273C252.772 81.0898 251.971 80.3607 251.008 79.8398C250.044 79.306 248.918 79.0391 247.629 79.0391C246.639 79.0391 245.728 79.2279 244.895 79.6055C244.061 79.9831 243.339 80.5299 242.727 81.2461C242.128 81.9622 241.659 82.8411 241.32 83.8828C240.982 84.9245 240.812 86.1094 240.812 87.4375C240.812 88.9219 240.975 90.3086 241.301 91.5977C241.639 92.8737 242.128 93.987 242.766 94.9375C243.417 95.875 244.224 96.6172 245.188 97.1641C246.151 97.6979 247.271 97.9648 248.547 97.9648ZM280.891 94.6445L279.367 98.2773C278.99 98.4466 278.56 98.6029 278.078 98.7461C277.609 98.8763 277.121 98.987 276.613 99.0781C276.105 99.1693 275.585 99.2344 275.051 99.2734C274.53 99.3255 274.035 99.3516 273.566 99.3516C271.926 99.3516 270.402 99.1107 268.996 98.6289C267.603 98.1471 266.398 97.444 265.383 96.5195C264.367 95.582 263.573 94.4362 263 93.082C262.427 91.7279 262.141 90.1784 262.141 88.4336C262.141 86.8971 262.44 85.4714 263.039 84.1562C263.638 82.8411 264.465 81.7018 265.52 80.7383C266.574 79.7617 267.818 79 269.25 78.4531C270.695 77.9062 272.258 77.6328 273.938 77.6328C274.315 77.6328 274.712 77.6523 275.129 77.6914C275.559 77.7174 275.982 77.763 276.398 77.8281C276.815 77.8932 277.219 77.9714 277.609 78.0625C278 78.1406 278.365 78.2253 278.703 78.3164L280.168 81.832L279.934 81.9688C279.582 81.5391 279.159 81.1419 278.664 80.7773C278.182 80.4128 277.648 80.1068 277.062 79.8594C276.49 79.599 275.884 79.3971 275.246 79.2539C274.608 79.1107 273.957 79.0391 273.293 79.0391C272.212 79.0391 271.223 79.2279 270.324 79.6055C269.439 79.9831 268.677 80.5365 268.039 81.2656C267.414 81.9818 266.926 82.8607 266.574 83.9023C266.223 84.944 266.047 86.1224 266.047 87.4375C266.047 88.9219 266.216 90.3086 266.555 91.5977C266.893 92.8737 267.401 93.987 268.078 94.9375C268.755 95.875 269.602 96.6172 270.617 97.1641C271.633 97.6979 272.818 97.9648 274.172 97.9648C274.823 97.9648 275.461 97.8867 276.086 97.7305C276.724 97.5612 277.323 97.3268 277.883 97.0273C278.456 96.7279 278.977 96.3698 279.445 95.9531C279.914 95.5234 280.318 95.0482 280.656 94.5273L280.891 94.6445ZM284.797 86.0312C284.797 84.8594 284.784 83.8438 284.758 82.9844C284.732 82.112 284.693 81.3633 284.641 80.7383C284.602 80.1003 284.543 79.5664 284.465 79.1367C284.4 78.707 284.322 78.3555 284.23 78.082V78.0039H288.762V78.082C288.671 78.3555 288.586 78.707 288.508 79.1367C288.443 79.5664 288.384 80.1003 288.332 80.7383C288.293 81.3633 288.26 82.112 288.234 82.9844C288.208 83.8438 288.195 84.8594 288.195 86.0312V90.9531C288.195 92.125 288.208 93.1471 288.234 94.0195C288.26 94.8919 288.293 95.6471 288.332 96.2852C288.384 96.9102 288.443 97.4375 288.508 97.8672C288.586 98.2969 288.671 98.6484 288.762 98.9219V99H284.23V98.9219C284.322 98.6484 284.4 98.2969 284.465 97.8672C284.543 97.4375 284.602 96.9102 284.641 96.2852C284.693 95.6471 284.732 94.8919 284.758 94.0195C284.784 93.1471 284.797 92.125 284.797 90.9531V86.0312ZM306.945 92.3984C306.594 92.3984 306.151 92.3984 305.617 92.3984C305.096 92.3984 304.523 92.3984 303.898 92.3984C303.273 92.3984 302.629 92.3984 301.965 92.3984C301.301 92.3984 300.669 92.4049 300.07 92.418C299.471 92.418 298.924 92.4245 298.43 92.4375C297.935 92.4375 297.551 92.4375 297.277 92.4375L296.555 93.9609C296.242 94.5859 295.975 95.1328 295.754 95.6016C295.533 96.0573 295.35 96.4609 295.207 96.8125C295.064 97.1641 294.96 97.4701 294.895 97.7305C294.829 97.9779 294.797 98.2122 294.797 98.4336C294.797 98.5768 294.803 98.6875 294.816 98.7656C294.829 98.8307 294.849 98.8828 294.875 98.9219V99H291.438V98.9219C291.529 98.8307 291.672 98.6354 291.867 98.3359C292.062 98.0234 292.284 97.6458 292.531 97.2031C292.792 96.7604 293.065 96.2591 293.352 95.6992C293.651 95.1393 293.944 94.5599 294.23 93.9609L302.199 77.5156H303.664L311.477 93.9609C311.776 94.5859 312.076 95.1849 312.375 95.7578C312.688 96.3307 312.974 96.8451 313.234 97.3008C313.495 97.7435 313.723 98.1146 313.918 98.4141C314.113 98.7005 314.243 98.8698 314.309 98.9219V99H309.309C309.335 98.8958 309.348 98.8047 309.348 98.7266C309.348 98.6354 309.348 98.5378 309.348 98.4336C309.348 98.1471 309.283 97.8021 309.152 97.3984C309.035 96.9948 308.885 96.5846 308.703 96.168C308.534 95.7383 308.352 95.3281 308.156 94.9375C307.974 94.5469 307.824 94.2214 307.707 93.9609L306.945 92.3984ZM298.039 90.875H299.23C299.777 90.875 300.357 90.875 300.969 90.875C301.594 90.862 302.219 90.8555 302.844 90.8555C303.469 90.8555 304.074 90.8555 304.66 90.8555C305.246 90.8424 305.773 90.8359 306.242 90.8359L302.199 82.2031L298.039 90.875ZM320.734 79.3906C320.721 80.4583 320.708 81.4935 320.695 82.4961C320.695 82.9258 320.689 83.3685 320.676 83.8242C320.676 84.2669 320.669 84.7096 320.656 85.1523C320.656 85.5951 320.656 86.0182 320.656 86.4219C320.656 86.8125 320.656 87.1641 320.656 87.4766C320.656 88.1276 320.656 88.9154 320.656 89.8398C320.669 90.7513 320.682 91.6888 320.695 92.6523C320.708 93.6159 320.728 94.5469 320.754 95.4453C320.78 96.3307 320.812 97.0729 320.852 97.6719C320.982 97.6979 321.151 97.724 321.359 97.75C321.568 97.763 321.783 97.7826 322.004 97.8086C322.238 97.8216 322.466 97.8346 322.688 97.8477C322.909 97.8477 323.098 97.8477 323.254 97.8477C323.97 97.8477 324.693 97.8021 325.422 97.7109C326.164 97.6198 326.874 97.4505 327.551 97.2031C328.241 96.9427 328.885 96.5911 329.484 96.1484C330.083 95.7057 330.604 95.1393 331.047 94.4492C331.503 93.7461 331.854 92.9062 332.102 91.9297C332.362 90.9401 332.492 89.7747 332.492 88.4336C332.492 85.4779 331.783 83.1992 330.363 81.5977C328.957 79.9961 326.854 79.1953 324.055 79.1953C323.781 79.1953 323.488 79.2018 323.176 79.2148C322.876 79.2279 322.577 79.2474 322.277 79.2734C321.978 79.2865 321.691 79.306 321.418 79.332C321.158 79.3581 320.93 79.3776 320.734 79.3906ZM316.691 77.9648C317.004 77.9779 317.297 77.9844 317.57 77.9844C317.805 77.9974 318.033 78.0039 318.254 78.0039C318.475 78.0039 318.638 78.0039 318.742 78.0039C318.924 78.0039 319.25 77.9974 319.719 77.9844C320.188 77.9714 320.715 77.9583 321.301 77.9453C321.9 77.9193 322.525 77.8997 323.176 77.8867C323.84 77.8607 324.452 77.8477 325.012 77.8477C326.535 77.8477 327.987 78.0234 329.367 78.375C330.747 78.7266 331.958 79.306 333 80.1133C334.055 80.9076 334.888 81.9557 335.5 83.2578C336.112 84.5469 336.418 86.1419 336.418 88.043C336.418 90.0872 336.066 91.819 335.363 93.2383C334.66 94.6576 333.71 95.8164 332.512 96.7148C331.314 97.6003 329.921 98.2448 328.332 98.6484C326.757 99.0391 325.09 99.2344 323.332 99.2344C322.915 99.2344 322.395 99.2214 321.77 99.1953C321.145 99.1693 320.507 99.1432 319.855 99.1172C319.204 99.0911 318.586 99.0651 318 99.0391C317.427 99.013 316.991 99 316.691 99V98.9219C316.783 98.6484 316.861 98.2969 316.926 97.8672C317.004 97.4375 317.062 96.9102 317.102 96.2852C317.154 95.6471 317.193 94.8919 317.219 94.0195C317.245 93.1471 317.258 92.125 317.258 90.9531V86.0312C317.258 84.8594 317.245 83.8372 317.219 82.9648C317.193 82.0924 317.154 81.3372 317.102 80.6992C317.062 80.0612 317.004 79.5273 316.926 79.0977C316.861 78.668 316.783 78.3164 316.691 78.043V77.9648ZM339.445 88.4336C339.445 86.8971 339.732 85.4714 340.305 84.1562C340.891 82.8411 341.685 81.7018 342.688 80.7383C343.69 79.7617 344.875 79 346.242 78.4531C347.609 77.9062 349.074 77.6328 350.637 77.6328C352.173 77.6328 353.618 77.8932 354.973 78.4141C356.34 78.9219 357.525 79.651 358.527 80.6016C359.543 81.5521 360.344 82.7044 360.93 84.0586C361.516 85.4128 361.809 86.9297 361.809 88.6094C361.809 90.0026 361.561 91.3503 361.066 92.6523C360.572 93.9414 359.849 95.0872 358.898 96.0898C357.948 97.0794 356.776 97.8737 355.383 98.4727C353.99 99.0586 352.395 99.3516 350.598 99.3516C349.074 99.3516 347.635 99.0977 346.281 98.5898C344.927 98.082 343.742 97.3594 342.727 96.4219C341.711 95.4714 340.91 94.3255 340.324 92.9844C339.738 91.6302 339.445 90.1133 339.445 88.4336ZM351.086 97.9648C352.076 97.9648 352.987 97.7695 353.82 97.3789C354.654 96.9883 355.37 96.4284 355.969 95.6992C356.581 94.9701 357.049 94.0846 357.375 93.043C357.714 91.9883 357.883 90.8034 357.883 89.4883C357.883 87.9909 357.72 86.6042 357.395 85.3281C357.082 84.0521 356.6 82.9518 355.949 82.0273C355.311 81.0898 354.51 80.3607 353.547 79.8398C352.583 79.306 351.457 79.0391 350.168 79.0391C349.178 79.0391 348.267 79.2279 347.434 79.6055C346.6 79.9831 345.878 80.5299 345.266 81.2461C344.667 81.9622 344.198 82.8411 343.859 83.8828C343.521 84.9245 343.352 86.1094 343.352 87.4375C343.352 88.9219 343.514 90.3086 343.84 91.5977C344.178 92.8737 344.667 93.987 345.305 94.9375C345.956 95.875 346.763 96.6172 347.727 97.1641C348.69 97.6979 349.81 97.9648 351.086 97.9648ZM375.305 82.0859H374.914C374.836 81.8646 374.706 81.5846 374.523 81.2461C374.354 80.9076 374.12 80.5755 373.82 80.25C373.534 79.9245 373.176 79.651 372.746 79.4297C372.316 79.1953 371.802 79.0781 371.203 79.0781C370.747 79.0781 370.337 79.1562 369.973 79.3125C369.621 79.4557 369.322 79.6576 369.074 79.918C368.827 80.1784 368.638 80.4909 368.508 80.8555C368.378 81.207 368.312 81.5911 368.312 82.0078C368.312 82.6849 368.514 83.3294 368.918 83.9414C369.335 84.5534 369.849 85.1654 370.461 85.7773C371.073 86.3763 371.737 86.9818 372.453 87.5938C373.169 88.2057 373.833 88.8438 374.445 89.5078C375.057 90.1719 375.565 90.875 375.969 91.6172C376.385 92.3594 376.594 93.1536 376.594 94C376.594 94.625 376.477 95.2695 376.242 95.9336C376.021 96.5977 375.656 97.1966 375.148 97.7305C374.641 98.2643 373.99 98.7005 373.195 99.0391C372.401 99.3906 371.438 99.5664 370.305 99.5664C369.68 99.5664 369.081 99.5143 368.508 99.4102C367.948 99.306 367.427 99.1758 366.945 99.0195C366.477 98.8763 366.053 98.7201 365.676 98.5508C365.311 98.3685 365.005 98.1992 364.758 98.043L365.109 94.3516H365.52C365.65 94.8073 365.839 95.263 366.086 95.7188C366.346 96.1745 366.659 96.5911 367.023 96.9688C367.401 97.3333 367.837 97.6328 368.332 97.8672C368.84 98.0885 369.419 98.1992 370.07 98.1992C370.526 98.1992 370.956 98.1276 371.359 97.9844C371.763 97.8281 372.108 97.6133 372.395 97.3398C372.694 97.0664 372.928 96.7344 373.098 96.3438C373.267 95.9401 373.352 95.4909 373.352 94.9961C373.352 94.4102 373.234 93.8698 373 93.375C372.766 92.8672 372.453 92.3854 372.062 91.9297C371.672 91.4609 371.229 91.0117 370.734 90.582C370.253 90.1523 369.751 89.7161 369.23 89.2734C368.71 88.8307 368.202 88.3815 367.707 87.9258C367.225 87.457 366.789 86.9557 366.398 86.4219C366.008 85.888 365.695 85.3216 365.461 84.7227C365.227 84.1107 365.109 83.4401 365.109 82.7109C365.109 81.9427 365.272 81.2526 365.598 80.6406C365.923 80.0286 366.353 79.5143 366.887 79.0977C367.421 78.668 368.033 78.3424 368.723 78.1211C369.413 77.8867 370.129 77.7695 370.871 77.7695C371.418 77.7695 371.926 77.8086 372.395 77.8867C372.876 77.9648 373.306 78.0625 373.684 78.1797C374.074 78.2839 374.413 78.3945 374.699 78.5117C374.986 78.6159 375.22 78.7005 375.402 78.7656L375.305 82.0859Z" fill="#E0CFBC"/>
<path d="M77.1312 124.938H86.7512V126.576H77.1312V124.938ZM77.3392 133.336H88.2852V135H75.4152V116.8H87.8952V118.464H77.3392V133.336ZM98.4806 135.13C97.354 135.13 96.288 134.974 95.2826 134.662C94.2773 134.333 93.4886 133.925 92.9166 133.44L93.7486 131.984C94.3033 132.4 95.014 132.764 95.8806 133.076C96.7473 133.371 97.6573 133.518 98.6106 133.518C99.9106 133.518 100.847 133.319 101.419 132.92C101.991 132.504 102.277 131.958 102.277 131.282C102.277 130.779 102.112 130.389 101.783 130.112C101.471 129.817 101.055 129.601 100.535 129.462C100.015 129.306 99.434 129.176 98.7926 129.072C98.1513 128.968 97.51 128.847 96.8686 128.708C96.2446 128.569 95.6726 128.37 95.1526 128.11C94.6326 127.833 94.208 127.46 93.8786 126.992C93.5666 126.524 93.4106 125.9 93.4106 125.12C93.4106 124.375 93.6186 123.707 94.0346 123.118C94.4506 122.529 95.0573 122.069 95.8546 121.74C96.6693 121.393 97.6573 121.22 98.8186 121.22C99.7026 121.22 100.587 121.341 101.471 121.584C102.355 121.809 103.083 122.113 103.655 122.494L102.849 123.976C102.242 123.56 101.592 123.265 100.899 123.092C100.205 122.901 99.512 122.806 98.8186 122.806C97.588 122.806 96.678 123.023 96.0886 123.456C95.5166 123.872 95.2306 124.409 95.2306 125.068C95.2306 125.588 95.3866 125.995 95.6986 126.29C96.028 126.585 96.4526 126.819 96.9726 126.992C97.51 127.148 98.0906 127.278 98.7146 127.382C99.356 127.486 99.9886 127.616 100.613 127.772C101.254 127.911 101.835 128.11 102.355 128.37C102.892 128.613 103.317 128.968 103.629 129.436C103.958 129.887 104.123 130.485 104.123 131.23C104.123 132.027 103.897 132.721 103.447 133.31C103.013 133.882 102.372 134.333 101.523 134.662C100.691 134.974 99.6766 135.13 98.4806 135.13ZM114.426 135.13C113.143 135.13 112.155 134.783 111.462 134.09C110.769 133.397 110.422 132.417 110.422 131.152V118.334H112.268V131.048C112.268 131.845 112.467 132.461 112.866 132.894C113.282 133.327 113.871 133.544 114.634 133.544C115.449 133.544 116.125 133.31 116.662 132.842L117.312 134.168C116.948 134.497 116.506 134.74 115.986 134.896C115.483 135.052 114.963 135.13 114.426 135.13ZM107.978 122.884V121.35H116.428V122.884H107.978ZM128.914 135.13C127.753 135.13 126.739 134.913 125.872 134.48C125.006 134.047 124.33 133.397 123.844 132.53C123.376 131.663 123.142 130.58 123.142 129.28V121.35H124.988V129.072C124.988 130.528 125.344 131.629 126.054 132.374C126.782 133.102 127.796 133.466 129.096 133.466C130.05 133.466 130.873 133.275 131.566 132.894C132.277 132.495 132.814 131.923 133.178 131.178C133.56 130.433 133.75 129.54 133.75 128.5V121.35H135.596V135H133.828V131.256L134.114 131.932C133.681 132.937 133.005 133.726 132.086 134.298C131.185 134.853 130.128 135.13 128.914 135.13ZM148.775 135.13C147.475 135.13 146.305 134.835 145.265 134.246C144.243 133.657 143.437 132.842 142.847 131.802C142.258 130.745 141.963 129.531 141.963 128.162C141.963 126.775 142.258 125.562 142.847 124.522C143.437 123.482 144.243 122.676 145.265 122.104C146.305 121.515 147.475 121.22 148.775 121.22C149.971 121.22 151.037 121.489 151.973 122.026C152.927 122.563 153.681 123.352 154.235 124.392C154.807 125.415 155.093 126.671 155.093 128.162C155.093 129.635 154.816 130.892 154.261 131.932C153.707 132.972 152.953 133.769 151.999 134.324C151.063 134.861 149.989 135.13 148.775 135.13ZM148.905 133.492C149.876 133.492 150.743 133.275 151.505 132.842C152.285 132.391 152.892 131.767 153.325 130.97C153.776 130.155 154.001 129.219 154.001 128.162C154.001 127.087 153.776 126.151 153.325 125.354C152.892 124.557 152.285 123.941 151.505 123.508C150.743 123.057 149.876 122.832 148.905 122.832C147.952 122.832 147.094 123.057 146.331 123.508C145.569 123.941 144.962 124.557 144.511 125.354C144.061 126.151 143.835 127.087 143.835 128.162C143.835 129.219 144.061 130.155 144.511 130.97C144.962 131.767 145.569 132.391 146.331 132.842C147.094 133.275 147.952 133.492 148.905 133.492ZM154.053 135V130.892L154.235 128.136L153.975 125.38V115.708H155.821V135H154.053ZM163.562 135V121.35H165.408V135H163.562ZM164.498 118.334C164.117 118.334 163.796 118.204 163.536 117.944C163.276 117.684 163.146 117.372 163.146 117.008C163.146 116.644 163.276 116.341 163.536 116.098C163.796 115.838 164.117 115.708 164.498 115.708C164.88 115.708 165.2 115.829 165.46 116.072C165.72 116.315 165.85 116.618 165.85 116.982C165.85 117.363 165.72 117.684 165.46 117.944C165.218 118.204 164.897 118.334 164.498 118.334ZM178.709 135.13C177.391 135.13 176.204 134.835 175.147 134.246C174.107 133.639 173.283 132.816 172.677 131.776C172.07 130.719 171.767 129.514 171.767 128.162C171.767 126.793 172.07 125.588 172.677 124.548C173.283 123.508 174.107 122.693 175.147 122.104C176.187 121.515 177.374 121.22 178.709 121.22C180.061 121.22 181.257 121.515 182.297 122.104C183.354 122.693 184.177 123.508 184.767 124.548C185.373 125.588 185.677 126.793 185.677 128.162C185.677 129.514 185.373 130.719 184.767 131.776C184.177 132.816 183.354 133.639 182.297 134.246C181.239 134.835 180.043 135.13 178.709 135.13ZM178.709 133.492C179.697 133.492 180.572 133.275 181.335 132.842C182.097 132.391 182.695 131.767 183.129 130.97C183.579 130.155 183.805 129.219 183.805 128.162C183.805 127.087 183.579 126.151 183.129 125.354C182.695 124.557 182.097 123.941 181.335 123.508C180.572 123.057 179.705 122.832 178.735 122.832C177.764 122.832 176.897 123.057 176.135 123.508C175.372 123.941 174.765 124.557 174.315 125.354C173.864 126.151 173.639 127.087 173.639 128.162C173.639 129.219 173.864 130.155 174.315 130.97C174.765 131.767 175.372 132.391 176.135 132.842C176.897 133.275 177.755 133.492 178.709 133.492ZM203.79 135.156C202.768 135.156 201.806 134.931 200.904 134.48C200.02 134.029 199.31 133.388 198.772 132.556L199.89 131.256C200.393 131.984 200.974 132.539 201.632 132.92C202.291 133.301 203.019 133.492 203.816 133.492C206.07 133.492 207.196 132.157 207.196 129.488V118.464H200.54V116.8H209.094V129.41C209.094 131.334 208.644 132.773 207.742 133.726C206.858 134.679 205.541 135.156 203.79 135.156ZM222.718 135.13C221.556 135.13 220.542 134.913 219.676 134.48C218.809 134.047 218.133 133.397 217.648 132.53C217.18 131.663 216.946 130.58 216.946 129.28V121.35H218.792V129.072C218.792 130.528 219.147 131.629 219.858 132.374C220.586 133.102 221.6 133.466 222.9 133.466C223.853 133.466 224.676 133.275 225.37 132.894C226.08 132.495 226.618 131.923 226.982 131.178C227.363 130.433 227.554 129.54 227.554 128.5V121.35H229.4V135H227.632V131.256L227.918 131.932C227.484 132.937 226.808 133.726 225.89 134.298C224.988 134.853 223.931 135.13 222.718 135.13ZM237.144 135V121.35H238.912V125.068L238.73 124.418C239.112 123.378 239.753 122.589 240.654 122.052C241.556 121.497 242.674 121.22 244.008 121.22V123.014C243.939 123.014 243.87 123.014 243.8 123.014C243.731 122.997 243.662 122.988 243.592 122.988C242.154 122.988 241.027 123.43 240.212 124.314C239.398 125.181 238.99 126.42 238.99 128.032V135H237.144ZM249.977 135V121.35H251.823V135H249.977ZM249.223 119.218L252.785 115.994H255.255L251.043 119.218H249.223ZM264.993 135.13C263.693 135.13 262.523 134.835 261.483 134.246C260.46 133.657 259.654 132.842 259.065 131.802C258.476 130.745 258.181 129.531 258.181 128.162C258.181 126.775 258.476 125.562 259.065 124.522C259.654 123.482 260.46 122.676 261.483 122.104C262.523 121.515 263.693 121.22 264.993 121.22C266.189 121.22 267.255 121.489 268.191 122.026C269.144 122.563 269.898 123.352 270.453 124.392C271.025 125.415 271.311 126.671 271.311 128.162C271.311 129.635 271.034 130.892 270.479 131.932C269.924 132.972 269.17 133.769 268.217 134.324C267.281 134.861 266.206 135.13 264.993 135.13ZM265.123 133.492C266.094 133.492 266.96 133.275 267.723 132.842C268.503 132.391 269.11 131.767 269.543 130.97C269.994 130.155 270.219 129.219 270.219 128.162C270.219 127.087 269.994 126.151 269.543 125.354C269.11 124.557 268.503 123.941 267.723 123.508C266.96 123.057 266.094 122.832 265.123 122.832C264.17 122.832 263.312 123.057 262.549 123.508C261.786 123.941 261.18 124.557 260.729 125.354C260.278 126.151 260.053 127.087 260.053 128.162C260.053 129.219 260.278 130.155 260.729 130.97C261.18 131.767 261.786 132.391 262.549 132.842C263.312 133.275 264.17 133.492 265.123 133.492ZM270.271 135V130.892L270.453 128.136L270.193 125.38V115.708H272.039V135H270.271ZM279.78 135V121.35H281.626V135H279.78ZM280.716 118.334C280.335 118.334 280.014 118.204 279.754 117.944C279.494 117.684 279.364 117.372 279.364 117.008C279.364 116.644 279.494 116.341 279.754 116.098C280.014 115.838 280.335 115.708 280.716 115.708C281.098 115.708 281.418 115.829 281.678 116.072C281.938 116.315 282.068 116.618 282.068 116.982C282.068 117.363 281.938 117.684 281.678 117.944C281.436 118.204 281.115 118.334 280.716 118.334ZM295.031 135.13C293.679 135.13 292.465 134.835 291.391 134.246C290.333 133.639 289.501 132.816 288.895 131.776C288.288 130.719 287.985 129.514 287.985 128.162C287.985 126.793 288.288 125.588 288.895 124.548C289.501 123.508 290.333 122.693 291.391 122.104C292.465 121.515 293.679 121.22 295.031 121.22C296.192 121.22 297.241 121.445 298.177 121.896C299.113 122.347 299.849 123.023 300.387 123.924L299.009 124.86C298.541 124.167 297.96 123.655 297.267 123.326C296.573 122.997 295.819 122.832 295.005 122.832C294.034 122.832 293.159 123.057 292.379 123.508C291.599 123.941 290.983 124.557 290.533 125.354C290.082 126.151 289.857 127.087 289.857 128.162C289.857 129.237 290.082 130.173 290.533 130.97C290.983 131.767 291.599 132.391 292.379 132.842C293.159 133.275 294.034 133.492 295.005 133.492C295.819 133.492 296.573 133.327 297.267 132.998C297.96 132.669 298.541 132.166 299.009 131.49L300.387 132.426C299.849 133.31 299.113 133.986 298.177 134.454C297.241 134.905 296.192 135.13 295.031 135.13ZM311.949 135.13C310.631 135.13 309.444 134.835 308.387 134.246C307.347 133.639 306.523 132.816 305.917 131.776C305.31 130.719 305.007 129.514 305.007 128.162C305.007 126.793 305.31 125.588 305.917 124.548C306.523 123.508 307.347 122.693 308.387 122.104C309.427 121.515 310.614 121.22 311.949 121.22C313.301 121.22 314.497 121.515 315.537 122.104C316.594 122.693 317.417 123.508 318.007 124.548C318.613 125.588 318.917 126.793 318.917 128.162C318.917 129.514 318.613 130.719 318.007 131.776C317.417 132.816 316.594 133.639 315.537 134.246C314.479 134.835 313.283 135.13 311.949 135.13ZM311.949 133.492C312.937 133.492 313.812 133.275 314.575 132.842C315.337 132.391 315.935 131.767 316.369 130.97C316.819 130.155 317.045 129.219 317.045 128.162C317.045 127.087 316.819 126.151 316.369 125.354C315.935 124.557 315.337 123.941 314.575 123.508C313.812 123.057 312.945 122.832 311.975 122.832C311.004 122.832 310.137 123.057 309.375 123.508C308.612 123.941 308.005 124.557 307.555 125.354C307.104 126.151 306.879 127.087 306.879 128.162C306.879 129.219 307.104 130.155 307.555 130.97C308.005 131.767 308.612 132.391 309.375 132.842C310.137 133.275 310.995 133.492 311.949 133.492Z" fill="#E0CFBC"/>
<line x1="8.37476" y1="106.125" x2="384.188" y2="106.125" stroke="#E0CFBC" stroke-width="0.75"/>
<g clip-path="url(#clip0_4_187)">
<path d="M388.955 107.167C388.689 106.735 388.347 106.341 387.941 106C388.349 105.661 388.691 105.267 388.955 104.833C390.023 104.913 391.071 105.307 391.896 106.02C391.079 106.727 390.03 107.103 388.955 107.167ZM386.712 106C387.976 106.717 388.812 107.94 388.812 109.333C384.958 109.333 384.233 106.227 384.187 106C384.229 105.773 384.958 102.667 388.812 102.667C388.812 104.06 387.976 105.283 386.712 106ZM390.666 106.017C390.265 105.797 389.822 105.643 389.36 105.56L388.986 106L389.363 106.45C389.826 106.373 390.269 106.227 390.666 106.017ZM384.969 106C384.969 106 385.343 108 387.945 108.58C387.27 106.667 385.305 106 385.305 106C385.305 106 387.656 105 387.941 103.42C385.343 104 384.969 106 384.969 106Z" fill="#E0CFBC"/>
</g>
<g clip-path="url(#clip1_4_187)">
<path d="M3.60765 104.833C3.87379 105.265 4.21576 105.659 4.62138 106C4.21334 106.339 3.87106 106.733 3.60765 107.167C2.53996 107.087 1.49154 106.693 0.666687 105.98C1.48384 105.273 2.53225 104.897 3.60765 104.833ZM5.85095 106C4.58669 105.283 3.75027 104.06 3.75027 102.667C7.60474 102.667 8.32938 105.773 8.37563 106C8.33324 106.227 7.60474 109.333 3.75027 109.333C3.75027 107.94 4.58669 106.717 5.85095 106ZM1.89626 105.983C2.29713 106.203 2.74039 106.357 3.20293 106.44L3.57681 106L3.19908 105.55C2.73654 105.627 2.29327 105.773 1.89626 105.983ZM7.59318 106C7.59318 106 7.21929 104 4.61752 103.42C5.29206 105.333 7.25784 106 7.25784 106C7.25784 106 4.90661 107 4.62138 108.58C7.21929 108 7.59318 106 7.59318 106Z" fill="#E0CFBC"/>
</g>
<path d="M165.281 32C165.281 38.213 165.281 36.5 165.281 36.5C165.281 35.5 165.281 37.212 165.281 31V26V13.7895V9.375V6.5V5V3.614V1.5V0C164.144 0.000920421 163.033 0.346829 162.096 0.99206C161.159 1.63729 160.44 2.5515 160.033 3.614C156.557 4.393 153.22 5.747 150.352 6.924C149.699 7.192 148.78 7.554 148.063 7.835C147.582 7.61574 147.06 7.50154 146.531 7.5C145.537 7.5 144.583 7.89509 143.88 8.59835C143.176 9.30161 142.781 10.2554 142.781 11.25C142.783 11.8249 142.917 12.3918 143.173 12.9063C143.43 13.4208 143.802 13.869 144.26 14.216L136.955 32.813H135.281C135.281 39.026 140.318 44.063 146.531 44.063C152.744 44.063 157.781 39.026 157.781 32.813H156.106L148.801 14.217C149.26 13.8699 149.632 13.4216 149.889 12.9069C150.146 12.3922 150.28 11.8252 150.281 11.25C150.281 11.163 150.26 11.081 150.255 10.995L151.19 10.616C153.821 9.535 156.868 8.292 159.995 7.533C160.278 8.31524 160.731 9.02507 161.321 9.61141C161.911 10.1978 162.623 10.646 163.407 10.924V16.656H162.257V34.688H161.007V43.517C154.804 44.668 150.281 48.252 150.281 52.5H148.406V56.25H144.656V60H165.281V56V53.5V51C165.281 46.752 165.281 46 165.281 43.517V34.688V16.655V13.7895V11.585V9.375V6.5V11.585C165.281 11.585 165.281 13.126 165.281 13.5V13.7895V18.5V24.2071V32.813V32ZM146.531 9.375C146.781 9.3693 147.03 9.41361 147.262 9.50533C147.495 9.59705 147.707 9.73433 147.886 9.9091C148.064 10.0839 148.206 10.2926 148.303 10.5231C148.4 10.7535 148.45 11.001 148.45 11.251C148.45 11.501 148.4 11.7485 148.303 11.9789C148.206 12.2093 148.064 12.4179 147.885 12.5926C147.706 12.7673 147.494 12.9045 147.261 12.9961C147.029 13.0877 146.78 13.1318 146.53 13.126C146.04 13.1146 145.574 12.9119 145.232 12.5613C144.89 12.2107 144.698 11.7401 144.698 11.25C144.698 10.76 144.89 10.2894 145.233 9.93902C145.575 9.58862 146.041 9.38618 146.531 9.375ZM154.17 32.813H138.889L145.911 14.938C146.114 14.972 146.319 15 146.531 15C146.743 15 146.947 14.972 147.149 14.937L154.17 32.813ZM165.281 13.7895V27.5V29.5V22V13.7895Z" fill="#E0CFBC"/>
<path d="M249.281 52.75V52.625C249.323 52.5208 249.354 52.3646 249.375 52.1562C249.396 51.9479 249.406 51.7604 249.406 51.5938C249.406 50.9479 249.312 50.2396 249.125 49.4688C248.958 48.6771 248.625 47.6979 248.125 46.5312L244.344 38.0312C243.177 37.9896 241.625 37.9688 239.688 37.9688C237.75 37.9688 235.656 37.9688 233.406 37.9688C231.76 37.9688 230.167 37.9688 228.625 37.9688C227.104 37.9688 225.729 37.9896 224.5 38.0312L220.906 46.2812C220.594 47.0521 220.26 47.8958 219.906 48.8125C219.552 49.7292 219.375 50.6562 219.375 51.5938C219.375 51.8646 219.396 52.0938 219.438 52.2812C219.479 52.4479 219.521 52.5625 219.562 52.625V52.75H213.679L213.541 52.2812C213.916 51.8854 214.031 51.5312 214.594 50.5312C215.156 49.5104 215.771 48.2396 216.438 46.7188L234.344 7H236.844L253.812 45.1875C254.208 46.0833 254.615 46.9583 255.031 47.8125C255.469 48.6458 255.875 49.3958 256.25 50.0625C256.625 50.7292 256.958 51.2917 257.25 51.75C257.542 52.2083 257.74 52.5 257.844 52.625V52.75H249.281ZM229.031 35.2812C230.24 35.2812 231.479 35.2812 232.75 35.2812C234.021 35.2604 235.26 35.25 236.469 35.25C237.698 35.2292 238.875 35.2188 240 35.2188C241.125 35.1979 242.146 35.1771 243.062 35.1562L234.281 15.3125L225.656 35.2812H229.031Z" fill="#E0CFBC"/>
<path d="M211.625 39.875C211.625 41.75 211.646 43.3854 211.688 44.7812C211.729 46.1771 211.781 47.3854 211.844 48.4062C211.927 49.4062 212.021 50.25 212.125 50.9375C212.25 51.625 212.385 52.1875 212.531 52.625V52.75H206.281V52L205.656 51.6289C205.541 51.5896 205.542 51.4356 205.656 50.9375C205.781 50.25 205.875 49.4062 205.938 48.4062C206.021 47.3854 206.083 46.1771 206.125 44.7812C206.167 43.3854 206.188 41.75 206.188 39.875V37.7188L197.099 25.7188C197.836 24.0191 198.261 21.3771 198.281 19.1562H200.094C200.094 19.5312 200.229 20.1146 200.5 20.9062C200.771 21.6771 201.323 22.625 202.156 23.75L210.094 34.25L218.219 23.3125C218.802 22.5208 219.24 21.7396 219.531 20.9688C219.844 20.1979 220 19.5938 220 19.1562H225.719V19.2812C225.198 19.6354 224.656 20.0833 224.094 20.625C223.552 21.1667 222.917 21.9375 222.188 22.9375L211.625 37.25V39.875Z" fill="#E0CFBC"/>
<path d="M176.875 40.5312C176.875 42.3021 176.896 43.8542 176.938 45.1875C177 46.5 177.062 47.6354 177.125 48.5938C177.208 49.5521 177.302 50.3542 177.406 51C177.531 51.6458 177.656 52.1875 177.781 52.625V52.75H170.281V52.625C170.406 52.1875 170.521 51.6458 170.625 51C170.75 50.3542 170.854 49.5521 170.938 48.5938C171.021 47.6354 171.083 46.5 171.125 45.1875C171.167 43.8542 171.188 42.3021 171.188 40.5312V20.1875C171.188 18.4167 171.167 16.875 171.125 15.5625C171.083 14.2292 171.021 13.0833 170.938 12.125C170.854 11.1458 170.75 10.3333 170.625 9.6875C170.521 9.04167 170.406 8.5 170.281 8.0625V7.9375C170.698 7.97917 171.135 8.02083 171.594 8.0625C171.99 8.10417 172.427 8.13542 172.906 8.15625C173.406 8.15625 173.917 8.15625 174.438 8.15625C175.25 8.15625 176.344 8.0625 177.719 7.875C179.115 7.66667 180.885 7.5625 183.031 7.5625C185.031 7.5625 186.875 7.83333 188.562 8.375C190.271 8.91667 191.75 9.70833 193 10.75C194.25 11.7917 195.219 13.0729 195.906 14.5938C196.615 16.0938 196.969 17.8021 196.969 19.7188C196.969 21.2188 196.771 22.6146 196.375 23.9062C196 25.1771 195.458 26.3333 194.75 27.375C194.062 28.4167 193.229 29.3438 192.25 30.1562C191.271 30.9479 190.177 31.6146 188.969 32.1562L199.938 47.5625C200.479 48.3333 200.979 49 201.438 49.5625C201.917 50.125 202.365 50.6042 202.781 51C203.219 51.3958 203.635 51.7292 204.031 52C204.427 52.25 204.833 52.4583 205.25 52.625V52.75H196.219C196.156 52.3542 195.948 51.8333 195.594 51.1875C195.26 50.5208 194.865 49.8646 194.406 49.2188L183.344 33.625C182.323 33.7292 181.271 33.7812 180.188 33.7812C179.104 33.7812 178 33.6875 176.875 33.5V40.5312ZM176.875 31.0625C178.917 31.4375 180.781 31.4896 182.469 31.2188C184.177 30.9479 185.635 30.3542 186.844 29.4375C188.073 28.5208 189.021 27.2812 189.688 25.7188C190.375 24.1354 190.719 22.2188 190.719 19.9688C190.719 18.4062 190.542 16.9896 190.188 15.7188C189.833 14.4479 189.302 13.375 188.594 12.5C187.906 11.6042 187.031 10.9167 185.969 10.4375C184.906 9.9375 183.667 9.6875 182.25 9.6875C181.354 9.6875 180.573 9.72917 179.906 9.8125C179.24 9.875 178.677 9.94792 178.219 10.0312C177.677 10.1354 177.229 10.25 176.875 10.375V31.0625Z" fill="#E0CFBC"/>
<defs>
<clipPath id="clip0_4_187">
<rect width="8" height="9.25074" fill="white" transform="matrix(0 1 -1 0 392.281 102)"/>
</clipPath>
<clipPath id="clip1_4_187">
<rect width="8" height="9.25074" fill="white" transform="matrix(0 -1 1 0 0.28125 110)"/>
</clipPath>
</defs>
</svg>
